<svg width="326" height="572" viewBox="0 0 326 572" fill="none" xmlns="http://www.w3.org/2000/svg">
<g opacity="0.3" filter="url(#filter0_f_115_634)">
<path d="M65.3774 505.25C65.3774 498.357 70.9647 492.77 77.857 492.77H247.422C254.314 492.77 259.901 498.357 259.901 505.25C259.901 512.118 254.351 517.696 247.482 517.729L162.639 518.143L77.7962 517.729C70.9277 517.696 65.3774 512.118 65.3774 505.25Z" fill="#5734D8"/>
</g>
<g filter="url(#filter1_d_115_634)">
<path fill-rule="evenodd" clip-rule="evenodd" d="M242.389 40H82.7231C64.6506 40 50 54.6506 50 72.7231V478.941C50 497.013 64.6506 511.664 82.7231 511.664H242.389C260.462 511.664 275.112 497.013 275.112 478.941V72.7231C275.112 54.6506 260.462 40 242.389 40ZM56.7703 72.7231C56.7703 58.3898 68.3897 46.7703 82.7231 46.7703H99.1319C101.076 47.4545 102.47 49.3072 102.47 51.4853C102.47 58.385 108.063 63.9781 114.963 63.9781H209.586C216.485 63.9781 222.078 58.385 222.078 51.4853C222.078 49.3072 223.472 47.4545 225.416 46.7703H242.389C256.722 46.7703 268.342 58.3898 268.342 72.7231V478.941C268.342 493.274 256.722 504.893 242.389 504.893H82.7231C68.3897 504.893 56.7703 493.274 56.7703 478.941V72.7231Z" fill="url(#paint0_linear_115_634)"/>
</g>
<g opacity="0.6">
<circle cx="149" cy="53.4861" r="2" fill="#DFDFE6"/>
<rect x="153.667" y="51.4861" width="25.3333" height="4" rx="2" fill="#DFDFE6"/>
</g>
<mask id="mask0_115_634" style="mask-type:alpha" maskUnits="userSpaceOnUse" x="56" y="46" width="213" height="459">
<path fill-rule="evenodd" clip-rule="evenodd" d="M56.8056 71.3584C56.7822 71.8103 56.7704 72.2653 56.7704 72.7231V478.941C56.7704 493.274 68.3898 504.893 82.7232 504.893H242.389C256.723 504.893 268.342 493.274 268.342 478.941V72.7231C268.342 72.6671 268.342 72.6111 268.341 72.5552C268.251 58.2992 256.667 46.7703 242.389 46.7703H225.416C223.472 47.4544 222.078 49.3072 222.078 51.4853C222.078 58.3849 216.485 63.9781 209.586 63.9781H114.963C108.063 63.9781 102.47 58.3849 102.47 51.4853C102.47 49.3072 101.076 47.4544 99.132 46.7703H82.7232C76.2561 46.7703 70.3416 49.1357 65.7974 53.0484C64.0469 54.5558 62.4997 56.2928 61.2027 58.2126C58.6427 62.002 57.0571 66.5037 56.8056 71.3584Z" fill="black"/>
</mask>
<g mask="url(#mask0_115_634)">
<path d="M56.767 46.7703H268.339V504.893H56.767V46.7703Z" fill="url(#paint1_linear_115_634)"/>
<rect x="56.5077" y="46.9344" width="211.364" height="457.674" rx="9.0182" fill="url(#paint2_linear_115_634)"/>
<path fill-rule="evenodd" clip-rule="evenodd" d="M109.995 120.906C110.131 121.191 110.537 121.191 110.673 120.906L113.418 115.151H113.691L116.435 120.906C116.571 121.191 116.978 121.191 117.114 120.906L119.859 115.151H120.131L122.876 120.906C123.012 121.191 123.418 121.191 123.554 120.906L126.299 115.151H126.571L129.316 120.906C129.452 121.191 129.859 121.191 129.995 120.906L132.739 115.151H133.012L135.757 120.906C135.893 121.191 136.299 121.191 136.435 120.906L139.18 115.151H139.453L142.198 120.906C142.334 121.191 142.74 121.191 142.876 120.906L145.621 115.151H145.893L148.638 120.906C148.774 121.191 149.18 121.191 149.316 120.906L152.061 115.151H152.333L155.078 120.906C155.214 121.191 155.62 121.191 155.757 120.906L158.501 115.151H158.774L161.519 120.906C161.655 121.191 162.061 121.191 162.197 120.906L164.942 115.151H165.215L167.96 120.906C168.096 121.191 168.502 121.191 168.638 120.906L171.383 115.151H171.655L174.4 120.906C174.536 121.191 174.942 121.191 175.078 120.906L177.823 115.151H178.096L180.84 120.906C180.977 121.192 181.383 121.192 181.519 120.906L184.264 115.151H184.536L187.281 120.906C187.417 121.192 187.823 121.192 187.96 120.906L190.704 115.151H190.977L193.722 120.906C193.858 121.192 194.264 121.192 194.4 120.906L197.145 115.151H197.417L200.162 120.906C200.298 121.192 200.704 121.192 200.84 120.906L203.585 115.151H203.858L206.602 120.906C206.739 121.192 207.145 121.192 207.281 120.906L210.026 115.151H210.298L213.043 120.906C213.179 121.192 213.585 121.192 213.722 120.906L216.466 115.151H216.738L219.483 120.906C219.619 121.192 220.026 121.192 220.162 120.906L222.907 115.151H223.179L225.924 120.906C226.06 121.192 226.466 121.192 226.602 120.906L229.347 115.151H229.635L232.38 120.906C232.516 121.192 232.922 121.192 233.058 120.906L235.803 115.151H236.091L238.835 120.906C238.971 121.192 239.378 121.192 239.514 120.906L242.259 115.151H242.546L245.291 120.906C245.427 121.192 245.833 121.192 245.969 120.906L248.714 115.151H249.108V416.509H74.5441V115.151H75.0474L77.7923 120.906C77.9284 121.192 78.3346 121.192 78.4706 120.906L81.2155 115.151H81.4877L84.2326 120.906C84.3687 121.192 84.7748 121.192 84.9109 120.906L87.6558 115.151H87.9284L90.6733 120.906C90.8094 121.192 91.2155 121.192 91.3516 120.906L94.0965 115.151H94.369L97.1139 120.906C97.25 121.192 97.6562 121.192 97.7922 120.906L100.537 115.151H100.809L103.554 120.906C103.69 121.192 104.096 121.192 104.233 120.906L106.977 115.151H107.25L109.995 120.906Z" fill="#FBF9BE"/>
<rect opacity="0.6" x="74.5441" y="373.673" width="174.728" height="37.5758" fill="url(#paint3_linear_115_634)"/>
<path d="M65.15 399.976H258.666V419.515C258.666 421.175 257.32 422.521 255.66 422.521H68.1561C66.4959 422.521 65.15 421.175 65.15 419.515V399.976Z" fill="#33159E"/>
<path d="M74.544 399.976H65.15L74.544 395.091V399.976Z" fill="#33159E"/>
<path d="M249.272 399.976H258.666L249.272 395.091V399.976Z" fill="#33159E"/>
<path d="M127.607 94.0628C129.014 94.0628 130.24 93.3774 130.986 92.3433L129.711 91.4054C129.242 92.0788 128.545 92.4876 127.655 92.4876C126.152 92.4876 125.07 91.2852 125.07 89.8062C125.07 88.3272 126.164 87.1489 127.667 87.1489C128.545 87.1489 129.242 87.5577 129.711 88.219L130.986 87.2931C130.24 86.247 129.014 85.5737 127.607 85.5737C125.262 85.5737 123.399 87.4735 123.399 89.8062C123.399 92.163 125.262 94.0628 127.607 94.0628ZM134.705 94.0628C136.305 94.0628 137.724 92.9085 137.724 91.1409C137.724 89.3613 136.305 88.207 134.705 88.207C133.106 88.207 131.687 89.3613 131.687 91.1409C131.687 92.9085 133.106 94.0628 134.705 94.0628ZM134.705 92.5958C133.924 92.5958 133.287 92.0067 133.287 91.1409C133.287 90.2631 133.924 89.674 134.705 89.674C135.487 89.674 136.124 90.2631 136.124 91.1409C136.124 92.0067 135.487 92.5958 134.705 92.5958ZM145.806 88.207C145.229 88.207 144.363 88.4715 143.93 89.2892C143.605 88.6038 142.956 88.207 142.126 88.207C141.501 88.207 140.708 88.5797 140.539 89.3493V88.3513H138.964V93.9546H140.539V91.0327C140.539 90.0227 141.116 89.7581 141.682 89.7581C142.211 89.7581 142.668 90.1068 142.668 90.9846V93.9546H144.243V90.9846C144.279 90.1429 144.724 89.7461 145.349 89.7581C145.902 89.7581 146.359 90.1188 146.359 90.9966V93.9546H147.946V90.8764C147.946 89.193 147.213 88.207 145.806 88.207ZM152.829 88.207C152.192 88.207 151.422 88.4595 151.025 89.0246V88.3513H149.45V96.7081H151.025V93.2572C151.422 93.8223 152.192 94.0628 152.829 94.0628C154.272 94.0628 155.582 92.9446 155.582 91.1409C155.582 89.3373 154.272 88.207 152.829 88.207ZM152.528 92.5838C151.795 92.5838 151.073 92.0067 151.073 91.1409C151.073 90.2872 151.759 89.686 152.528 89.686C153.322 89.686 153.971 90.3233 153.971 91.1409C153.971 91.9706 153.322 92.5838 152.528 92.5838ZM160.047 88.207C159.349 88.207 158.712 88.6038 158.399 89.5417V88.3513H156.836V93.9546H158.411V92.0307C158.411 90.4315 158.964 89.686 159.77 89.686C159.962 89.686 160.239 89.71 160.576 89.8904L160.936 88.3874C160.684 88.2551 160.347 88.207 160.047 88.207ZM164.32 94.0628C165.919 94.0628 167.338 92.9085 167.338 91.1409C167.338 89.3613 165.919 88.207 164.32 88.207C162.721 88.207 161.302 89.3613 161.302 91.1409C161.302 92.9085 162.721 94.0628 164.32 94.0628ZM164.32 92.5958C163.538 92.5958 162.901 92.0067 162.901 91.1409C162.901 90.2631 163.538 89.674 164.32 89.674C165.101 89.674 165.739 90.2631 165.739 91.1409C165.739 92.0067 165.101 92.5958 164.32 92.5958ZM172.129 88.3513L170.782 91.9345L169.411 88.3513H167.704L170.073 93.9546H171.479L173.848 88.3513H172.129ZM178.776 88.3513V89.0246C178.379 88.4595 177.622 88.219 176.972 88.219C175.529 88.219 174.219 89.3373 174.219 91.1409C174.219 92.9446 175.529 94.0628 176.972 94.0628C177.598 94.0628 178.379 93.8103 178.776 93.2572V93.9546H180.351V88.3513H178.776ZM177.273 92.5958C176.479 92.5958 175.818 91.9586 175.818 91.1409C175.818 90.3112 176.479 89.698 177.273 89.698C178.006 89.698 178.728 90.2752 178.728 91.1409C178.728 91.9946 178.042 92.5958 177.273 92.5958ZM185.2 88.207C184.647 88.207 183.757 88.5316 183.517 89.2892V88.3513H181.941V93.9546H183.517V91.0808C183.517 90.0587 184.214 89.7581 184.779 89.7581C185.32 89.7581 185.849 90.1549 185.849 91.0447V93.9546H187.425V90.8764C187.437 89.193 186.667 88.207 185.2 88.207ZM192.176 88.3513H190.986V86.2951H189.411V88.3513H188.389V89.5657H189.411V93.9546H190.986V89.5657H192.176V88.3513ZM198.652 91.0567C198.652 89.3373 197.341 88.207 195.742 88.207C194.131 88.207 192.76 89.3373 192.76 91.1529C192.76 92.8844 194.023 94.0628 195.742 94.0628C196.728 94.0628 197.714 93.678 198.243 92.9686L197.317 92.0427C196.981 92.4395 196.415 92.668 195.85 92.668C195.093 92.668 194.564 92.3073 194.395 91.658H198.628C198.64 91.4054 198.652 91.2131 198.652 91.0567ZM194.395 90.6359C194.564 89.8784 195.129 89.5778 195.766 89.5778C196.476 89.5778 197.029 89.9746 197.077 90.6359H194.395Z" fill="white"/>
<path fill-rule="evenodd" clip-rule="evenodd" d="M79.5176 89.8363L74.9375 94.4165L75.7346 95.2136L80.3147 90.6335L84.8949 95.2136L85.692 94.4165L81.1118 89.8363L85.6922 85.256L84.8951 84.4589L80.3147 89.0392L75.7344 84.4589L74.9373 85.256L79.5176 89.8363Z" fill="white"/>
<rect x="94.8351" y="452.378" width="133.723" height="27.4304" rx="13.7152" fill="white"/>
<path d="M137.304 469.631C135.521 469.631 134.104 468.168 134.104 466.385C134.104 464.602 135.521 463.111 137.304 463.111C138.301 463.111 139.169 463.55 139.727 464.245L139.032 464.803C138.63 464.309 138.008 463.989 137.313 463.989C136.033 463.989 135.046 465.086 135.046 466.385C135.046 467.674 136.024 468.753 137.313 468.753C138.008 468.753 138.63 468.433 139.032 467.939L139.727 468.497C139.169 469.192 138.301 469.631 137.304 469.631ZM142.594 469.631C141.377 469.631 140.353 468.735 140.353 467.381C140.353 466.028 141.377 465.141 142.594 465.141C143.81 465.141 144.843 466.028 144.843 467.381C144.843 468.735 143.81 469.631 142.594 469.631ZM142.594 468.79C143.325 468.79 143.947 468.213 143.947 467.381C143.947 466.559 143.325 465.982 142.594 465.982C141.862 465.982 141.249 466.559 141.249 467.381C141.249 468.213 141.862 468.79 142.594 468.79ZM150.998 465.141C152.067 465.141 152.644 465.864 152.644 467.08V469.521H151.738V467.125C151.738 466.431 151.373 466.001 150.797 466.001C150.092 465.992 149.727 466.495 149.727 467.391V469.521H148.822V467.125C148.822 466.431 148.456 466.001 147.925 466.001C147.368 466.001 146.801 466.357 146.801 467.226V469.521H145.905V465.251H146.801V465.918C146.993 465.443 147.56 465.141 148.136 465.141C148.758 465.141 149.279 465.47 149.535 466.037C149.9 465.297 150.568 465.141 150.998 465.141ZM156.3 465.141C157.453 465.141 158.422 466.037 158.422 467.391C158.422 468.753 157.462 469.631 156.3 469.631C155.697 469.631 155.103 469.375 154.819 468.89V471.597H153.923V465.251H154.819V465.891C155.103 465.406 155.724 465.141 156.3 465.141ZM156.191 468.79C156.931 468.79 157.517 468.204 157.517 467.4C157.517 466.595 156.931 465.982 156.191 465.982C155.478 465.982 154.828 466.54 154.828 467.4C154.828 468.259 155.532 468.79 156.191 468.79ZM162.805 465.891V465.251H163.701V469.521H162.805V468.799C162.531 469.292 161.946 469.631 161.287 469.631C160.172 469.631 159.212 468.698 159.212 467.381C159.212 466.11 160.117 465.141 161.324 465.141C161.946 465.141 162.531 465.406 162.805 465.891ZM161.443 468.79C162.156 468.79 162.796 468.186 162.796 467.381C162.796 466.559 162.11 465.982 161.424 465.982C160.693 465.982 160.117 466.623 160.117 467.381C160.117 468.149 160.693 468.79 161.443 468.79ZM167.152 465.141C167.444 465.141 167.746 465.214 167.883 465.297L167.728 466.147C167.49 466.037 167.271 466.001 167.097 466.001C166.32 466.001 165.954 466.833 165.954 467.985V469.521H165.049V465.251H165.954V466.211C166.174 465.461 166.603 465.141 167.152 465.141ZM169.891 465.251H170.805V466.001H169.891V469.521H168.995V466.001H168.227V465.251H168.995V463.651H169.891V465.251ZM172.104 464.273C171.775 464.273 171.492 464.026 171.492 463.697C171.492 463.367 171.775 463.121 172.104 463.121C172.443 463.121 172.717 463.367 172.717 463.697C172.717 464.026 172.443 464.273 172.104 464.273ZM172.553 469.521H171.656V465.251H172.553V469.521ZM174.794 469.521H173.898V462.929H174.794V469.521ZM178.425 465.141C179.504 465.141 180.144 465.864 180.135 467.08V469.521H179.239V467.135C179.239 466.44 178.818 466.019 178.269 466.019C177.712 466.019 177.035 466.348 177.035 467.226V469.521H176.139V462.929H177.035V465.9C177.282 465.379 177.968 465.141 178.425 465.141ZM184.735 465.891V465.251H185.631V469.521H184.735V468.799C184.461 469.292 183.876 469.631 183.217 469.631C182.102 469.631 181.142 468.698 181.142 467.381C181.142 466.11 182.047 465.141 183.254 465.141C183.876 465.141 184.461 465.406 184.735 465.891ZM183.373 468.79C184.086 468.79 184.726 468.186 184.726 467.381C184.726 466.559 184.04 465.982 183.354 465.982C182.623 465.982 182.047 466.623 182.047 467.381C182.047 468.149 182.623 468.79 183.373 468.79ZM189.082 465.141C189.374 465.141 189.676 465.214 189.813 465.297L189.658 466.147C189.42 466.037 189.201 466.001 189.027 466.001C188.25 466.001 187.884 466.833 187.884 467.985V469.521H186.979V465.251H187.884V466.211C188.104 465.461 188.533 465.141 189.082 465.141Z" fill="#33159E"/>
<path d="M113.755 172.865C111.997 172.865 110.599 171.422 110.599 169.664C110.599 167.905 111.997 166.435 113.755 166.435C114.711 166.435 115.541 166.841 116.091 167.49L115.496 167.995C115.081 167.508 114.45 167.193 113.755 167.193C112.448 167.193 111.42 168.329 111.42 169.664C111.42 170.989 112.448 172.108 113.755 172.108C114.45 172.108 115.081 171.792 115.496 171.305L116.091 171.81C115.541 172.459 114.711 172.865 113.755 172.865ZM118.937 172.865C117.737 172.865 116.736 171.981 116.736 170.647C116.736 169.312 117.737 168.437 118.937 168.437C120.136 168.437 121.146 169.312 121.146 170.647C121.146 171.981 120.136 172.865 118.937 172.865ZM118.937 172.126C119.712 172.126 120.362 171.521 120.362 170.647C120.362 169.781 119.712 169.177 118.937 169.177C118.17 169.177 117.53 169.781 117.53 170.647C117.53 171.521 118.17 172.126 118.937 172.126ZM127.235 168.437C128.29 168.437 128.867 169.141 128.867 170.322V172.757H128.082V170.367C128.082 169.664 127.695 169.195 127.081 169.195C126.333 169.186 125.945 169.709 125.945 170.647V172.757H125.161V170.367C125.161 169.655 124.773 169.195 124.214 169.195C123.618 169.195 123.023 169.583 123.023 170.475V172.757H122.239V168.545H123.023V169.195C123.231 168.735 123.781 168.437 124.376 168.437C124.989 168.437 125.521 168.762 125.765 169.339C126.153 168.582 126.811 168.437 127.235 168.437ZM132.455 168.437C133.609 168.437 134.565 169.33 134.565 170.656C134.565 171.99 133.619 172.865 132.464 172.865C131.833 172.865 131.238 172.595 130.958 172.099V174.804H130.174V168.545H130.958V169.204C131.238 168.726 131.851 168.437 132.455 168.437ZM132.383 172.126C133.159 172.126 133.772 171.512 133.772 170.665C133.772 169.826 133.159 169.177 132.383 169.177C131.635 169.177 130.958 169.763 130.958 170.665C130.958 171.576 131.698 172.126 132.383 172.126ZM137.635 168.437C137.933 168.437 138.239 168.518 138.366 168.6L138.239 169.339C138.014 169.231 137.789 169.195 137.626 169.195C136.787 169.195 136.454 170.106 136.454 171.215V172.757H135.66V168.545H136.454V169.501C136.67 168.762 137.076 168.437 137.635 168.437ZM140.919 172.865C139.719 172.865 138.718 171.981 138.718 170.647C138.718 169.312 139.719 168.437 140.919 168.437C142.118 168.437 143.128 169.312 143.128 170.647C143.128 171.981 142.118 172.865 140.919 172.865ZM140.919 172.126C141.694 172.126 142.344 171.521 142.344 170.647C142.344 169.781 141.694 169.177 140.919 169.177C140.152 169.177 139.512 169.781 139.512 170.647C139.512 171.521 140.152 172.126 140.919 172.126ZM145.702 171.756L146.992 168.545H147.839L146.081 172.757H145.314L143.565 168.545H144.403L145.702 171.756ZM151.872 169.204V168.545H152.657V172.757H151.872V172.008C151.593 172.513 151.006 172.865 150.33 172.865C149.23 172.865 148.265 171.936 148.265 170.647C148.265 169.402 149.176 168.437 150.366 168.437C150.997 168.437 151.593 168.708 151.872 169.204ZM150.447 172.126C151.196 172.126 151.872 171.503 151.872 170.647C151.872 169.781 151.142 169.177 150.438 169.177C149.672 169.177 149.058 169.853 149.058 170.647C149.058 171.449 149.672 172.126 150.447 172.126ZM156.214 168.437C157.26 168.437 157.918 169.141 157.909 170.322V172.757H157.125V170.367C157.125 169.664 156.692 169.213 156.105 169.213C155.519 169.213 154.816 169.565 154.816 170.475V172.757H154.031V168.545H154.816V169.186C155.068 168.672 155.754 168.437 156.214 168.437ZM160.275 168.545H161.186V169.222H160.275V172.757H159.49V169.222H158.733V168.545H159.49V166.958H160.275V168.545ZM165.952 170.638C165.952 170.755 165.943 170.872 165.934 170.989H162.507C162.624 171.738 163.165 172.126 163.887 172.126C164.401 172.126 164.87 171.891 165.113 171.467L165.79 171.738C165.429 172.468 164.671 172.865 163.86 172.865C162.66 172.865 161.695 171.972 161.695 170.638C161.695 169.303 162.66 168.437 163.86 168.437C165.059 168.437 165.952 169.303 165.952 170.638ZM162.516 170.313H165.167C165.068 169.592 164.554 169.177 163.86 169.177C163.147 169.177 162.642 169.555 162.516 170.313ZM172.341 171.034H169.221V170.277H172.341V171.034ZM178.787 170.051L177.398 171.648H179.491V172.757H175.514V172.117L177.822 169.348C178.066 169.05 178.228 168.744 178.228 168.545C178.228 168.149 177.903 167.869 177.444 167.869C176.92 167.869 176.623 168.212 176.551 168.726L175.478 168.545C175.622 167.49 176.307 166.769 177.489 166.769C178.67 166.769 179.437 167.481 179.437 168.554C179.437 169.123 179.166 169.628 178.787 170.051ZM182.63 172.865C180.907 172.865 180.42 171.494 180.42 169.817C180.42 168.113 180.907 166.769 182.63 166.769C184.334 166.769 184.812 168.113 184.812 169.817C184.812 171.494 184.334 172.865 182.63 172.865ZM182.63 171.765C183.387 171.765 183.604 170.89 183.604 169.817C183.604 168.726 183.387 167.869 182.63 167.869C181.854 167.869 181.62 168.726 181.62 169.817C181.62 170.89 181.854 171.765 182.63 171.765ZM188.959 170.051L187.57 171.648H189.663V172.757H185.686V172.117L187.994 169.348C188.238 169.05 188.4 168.744 188.4 168.545C188.4 168.149 188.075 167.869 187.615 167.869C187.092 167.869 186.795 168.212 186.723 168.726L185.649 168.545C185.794 167.49 186.479 166.769 187.66 166.769C188.842 166.769 189.608 167.481 189.608 168.554C189.608 169.123 189.338 169.628 188.959 170.051ZM192.747 166.769C194.127 166.769 195.038 167.923 195.038 169.601C195.038 171.35 194.19 172.865 192.54 172.865C191.764 172.865 190.998 172.495 190.637 171.693L191.593 171.161C191.773 171.567 192.143 171.765 192.522 171.765C193.261 171.765 193.793 171.089 193.839 170.151C193.55 170.448 193.126 170.656 192.558 170.656C191.359 170.656 190.565 169.781 190.565 168.753C190.565 167.626 191.431 166.769 192.747 166.769ZM192.711 169.655C193.306 169.655 193.73 169.294 193.739 168.78C193.739 168.257 193.334 167.878 192.747 167.869C192.17 167.869 191.755 168.239 191.755 168.762C191.755 169.276 192.152 169.646 192.711 169.655ZM199.608 170.575H200.51V171.63H199.608V172.757H198.409V171.63H195.559V171.278L198.905 166.85H199.608V170.575ZM198.409 169.014L197.246 170.575H198.409V169.014ZM203.474 166.769C204.854 166.769 205.765 167.923 205.765 169.601C205.765 171.35 204.917 172.865 203.267 172.865C202.491 172.865 201.725 172.495 201.364 171.693L202.32 171.161C202.5 171.567 202.87 171.765 203.249 171.765C203.988 171.765 204.52 171.089 204.565 170.151C204.277 170.448 203.853 170.656 203.285 170.656C202.085 170.656 201.292 169.781 201.292 168.753C201.292 167.626 202.157 166.769 203.474 166.769ZM203.438 169.655C204.033 169.655 204.457 169.294 204.466 168.78C204.466 168.257 204.06 167.878 203.474 167.869C202.897 167.869 202.482 168.239 202.482 168.762C202.482 169.276 202.879 169.646 203.438 169.655ZM206.43 167.788L208.883 166.769H208.982V172.757H207.792V168.374L206.43 168.897V167.788ZM212.405 172.865C210.683 172.865 210.196 171.494 210.196 169.817C210.196 168.113 210.683 166.769 212.405 166.769C214.11 166.769 214.588 168.113 214.588 169.817C214.588 171.494 214.11 172.865 212.405 172.865ZM212.405 171.765C213.163 171.765 213.379 170.89 213.379 169.817C213.379 168.726 213.163 167.869 212.405 167.869C211.63 167.869 211.395 168.726 211.395 169.817C211.395 170.89 211.63 171.765 212.405 171.765Z" fill="#33159E"/>
<path opacity="0.3" d="M87.6957 188.799H235.369" stroke="#855B35" stroke-width="0.751517"/>
<path opacity="0.3" d="M87.6957 291.006H235.369" stroke="#855B35" stroke-width="0.751517"/>
<path d="M131.472 216H129.496V210.987H131.472C133.043 210.987 134.133 211.987 134.133 213.497C134.133 215.008 133.043 216 131.472 216ZM130.563 211.927V215.061H131.472C132.464 215.061 133.043 214.347 133.043 213.497C133.043 212.611 132.502 211.927 131.472 211.927H130.563ZM138.437 216H134.89V210.987H138.437V211.904H135.957V212.994H138.385V213.911H135.957V215.076H138.437V216ZM146.162 216H145.027L144.148 212.558L143.276 216H142.141L140.706 210.987H141.901L142.78 214.61L143.735 210.987H144.569L145.516 214.61L146.387 210.987H147.59L146.162 216ZM149.16 216H148.093V210.987H149.16V216ZM153.342 216H150.155V210.987H151.223V215.061H153.342V216ZM157.276 216H154.089V210.987H155.156V215.061H157.276V216ZM159.09 216H158.023V210.987H159.09V216ZM164.76 216H163.595L163.279 215.136H161.04L160.724 216H159.551L161.49 210.987H162.828L164.76 216ZM162.986 214.211L162.159 211.912L161.325 214.211H162.986ZM170.656 216H169.581V212.393L168.168 216H167.702L166.29 212.393V216H165.222V210.987H166.718L167.935 214.114L169.153 210.987H170.656V216ZM179.008 216H177.933V212.393L176.52 216H176.054L174.641 212.393V216H173.574V210.987H175.07L176.287 214.114L177.505 210.987H179.008V216ZM179.763 213.497C179.763 211.987 180.867 210.905 182.378 210.905C183.896 210.905 185.001 211.987 185.001 213.497C185.001 215.008 183.896 216.09 182.378 216.09C180.867 216.09 179.763 215.008 179.763 213.497ZM183.904 213.497C183.904 212.558 183.302 211.852 182.378 211.852C181.454 211.852 180.86 212.558 180.86 213.497C180.86 214.429 181.454 215.143 182.378 215.143C183.302 215.143 183.904 214.429 183.904 213.497ZM189.808 216H188.583L187.598 214.204H186.817V216H185.75V210.987H188.094C189.139 210.987 189.778 211.671 189.778 212.603C189.778 213.49 189.222 213.963 188.681 214.091L189.808 216ZM188.688 212.596C188.688 212.175 188.365 211.904 187.937 211.904H186.817V213.287H187.937C188.365 213.287 188.688 213.016 188.688 212.596ZM194.126 216H190.579V210.987H194.126V211.904H191.646V212.994H194.073V213.911H191.646V215.076H194.126V216ZM196.027 216H194.96V210.987H196.027V216ZM201.081 216H199.856L198.871 214.204H198.09V216H197.022V210.987H199.367C200.412 210.987 201.051 211.671 201.051 212.603C201.051 213.49 200.494 213.963 199.953 214.091L201.081 216ZM199.961 212.596C199.961 212.175 199.638 211.904 199.209 211.904H198.09V213.287H199.209C199.638 213.287 199.961 213.016 199.961 212.596ZM206.526 216H205.361L205.045 215.136H202.806L202.49 216H201.318L203.257 210.987H204.595L206.526 216ZM204.752 214.211L203.926 211.912L203.091 214.211H204.752Z" fill="#855B35"/>
<path d="M130.563 318H129.496V312.987H131.841C132.93 312.987 133.524 313.724 133.524 314.603C133.524 315.475 132.923 316.204 131.841 316.204H130.563V318ZM132.434 314.596C132.434 314.182 132.119 313.904 131.698 313.904H130.563V315.287H131.698C132.119 315.287 132.434 315.016 132.434 314.596ZM138.302 318H137.137L136.822 317.136H134.582L134.267 318H133.094L135.033 312.987H136.371L138.302 318ZM136.529 316.211L135.702 313.912L134.868 316.211H136.529ZM142.823 318H141.598L140.614 316.204H139.832V318H138.765V312.987H141.11C142.155 312.987 142.793 313.671 142.793 314.603C142.793 315.49 142.237 315.963 141.696 316.091L142.823 318ZM141.704 314.596C141.704 314.175 141.38 313.904 140.952 313.904H139.832V315.287H140.952C141.38 315.287 141.704 315.016 141.704 314.596ZM148.269 318H147.104L146.788 317.136H144.549L144.233 318H143.061L145 312.987H146.337L148.269 318ZM146.495 316.211L145.668 313.912L144.834 316.211H146.495ZM153.375 318H150.654V312.987H153.292C154.247 312.987 154.735 313.596 154.735 314.265C154.735 314.896 154.344 315.317 153.871 315.415C154.404 315.497 154.833 316.016 154.833 316.647C154.833 317.399 154.329 318 153.375 318ZM151.722 313.897V315.001H153.059C153.42 315.001 153.645 314.768 153.645 314.445C153.645 314.137 153.42 313.897 153.059 313.897H151.722ZM151.722 315.911V317.091H153.097C153.503 317.091 153.743 316.858 153.743 316.497C153.743 316.181 153.518 315.911 153.097 315.911H151.722ZM156.705 318H155.638V312.987H156.705V318ZM162.374 318H161.209L160.894 317.136H158.654L158.339 318H157.166L159.105 312.987H160.443L162.374 318ZM160.601 316.211L159.774 313.912L158.94 316.211H160.601ZM167.324 318H166.294L163.904 314.633V318H162.837V312.987H163.934L166.257 316.234V312.987H167.324V318ZM170.702 318.09C169.236 318.09 168.072 317.038 168.072 315.497C168.072 313.957 169.236 312.905 170.702 312.905C171.844 312.905 172.483 313.506 172.836 314.13L171.919 314.581C171.709 314.175 171.258 313.852 170.702 313.852C169.83 313.852 169.169 314.551 169.169 315.497C169.169 316.444 169.83 317.143 170.702 317.143C171.258 317.143 171.709 316.828 171.919 316.414L172.836 316.858C172.476 317.481 171.844 318.09 170.702 318.09ZM178.095 318H176.93L176.614 317.136H174.375L174.059 318H172.887L174.825 312.987H176.163L178.095 318ZM176.321 316.211L175.494 313.912L174.66 316.211H176.321ZM185.914 318H184.839V314.393L183.426 318H182.96L181.547 314.393V318H180.48V312.987H181.976L183.193 316.114L184.411 312.987H185.914V318ZM186.669 315.497C186.669 313.987 187.773 312.905 189.284 312.905C190.802 312.905 191.907 313.987 191.907 315.497C191.907 317.008 190.802 318.09 189.284 318.09C187.773 318.09 186.669 317.008 186.669 315.497ZM190.81 315.497C190.81 314.558 190.208 313.852 189.284 313.852C188.36 313.852 187.766 314.558 187.766 315.497C187.766 316.429 188.36 317.143 189.284 317.143C190.208 317.143 190.81 316.429 190.81 315.497ZM196.714 318H195.489L194.504 316.204H193.723V318H192.656V312.987H195C196.045 312.987 196.684 313.671 196.684 314.603C196.684 315.49 196.128 315.963 195.587 316.091L196.714 318ZM195.594 314.596C195.594 314.175 195.271 313.904 194.843 313.904H193.723V315.287H194.843C195.271 315.287 195.594 315.016 195.594 314.596ZM201.032 318H197.485V312.987H201.032V313.904H198.552V314.994H200.979V315.911H198.552V317.076H201.032V318ZM202.933 318H201.866V312.987H202.933V318ZM207.987 318H206.762L205.777 316.204H204.996V318H203.928V312.987H206.273C207.318 312.987 207.957 313.671 207.957 314.603C207.957 315.49 207.4 315.963 206.859 316.091L207.987 318ZM206.867 314.596C206.867 314.175 206.544 313.904 206.115 313.904H204.996V315.287H206.115C206.544 315.287 206.867 315.016 206.867 314.596ZM213.432 318H212.267L211.951 317.136H209.712L209.396 318H208.224L210.163 312.987H211.501L213.432 318ZM211.658 316.211L210.832 313.912L209.998 316.211H211.658Z" fill="#855B35"/>
<path d="M89.7774 242.521H90.5514L92.573 237.508H91.8591L90.1682 241.837L88.4773 237.508H87.7633L89.7774 242.521ZM94.9984 242.521H95.562V240.026C95.562 239.146 94.9232 238.801 94.1567 238.801C93.563 238.801 93.097 238.996 92.7062 239.402L92.9693 239.793C93.2924 239.447 93.6456 239.289 94.0815 239.289C94.6076 239.289 94.9984 239.567 94.9984 240.056V240.71C94.7053 240.371 94.2919 240.214 93.7959 240.214C93.1797 240.214 92.5259 240.597 92.5259 241.409C92.5259 242.198 93.1797 242.611 93.7959 242.611C94.2844 242.611 94.6978 242.438 94.9984 242.107V242.521ZM94.9984 241.754C94.7804 242.055 94.3972 242.205 93.9988 242.205C93.4728 242.205 93.1045 241.874 93.1045 241.416C93.1045 240.95 93.4728 240.619 93.9988 240.619C94.3972 240.619 94.7804 240.77 94.9984 241.07V241.754ZM96.6919 242.521H97.2555V237.508H96.6919V242.521ZM99.9655 242.611C101.07 242.611 101.762 241.754 101.762 240.702C101.762 239.65 101.07 238.801 99.9655 238.801C98.8608 238.801 98.1694 239.65 98.1694 240.702C98.1694 241.754 98.8608 242.611 99.9655 242.611ZM99.9655 242.107C99.1915 242.107 98.7556 241.446 98.7556 240.702C98.7556 239.966 99.1915 239.304 99.9655 239.304C100.74 239.304 101.168 239.966 101.168 240.702C101.168 241.446 100.74 242.107 99.9655 242.107ZM102.681 242.521H103.244V239.951C103.409 239.657 103.883 239.372 104.229 239.372C104.319 239.372 104.386 239.379 104.454 239.394V238.816C103.958 238.816 103.537 239.094 103.244 239.477V238.891H102.681V242.521ZM88.2819 258.521H90.5665C91.4833 258.521 92.0169 257.972 92.0169 257.168C92.0169 256.567 91.5735 256.018 91.0399 255.936C91.4984 255.838 91.9192 255.417 91.9192 254.786C91.9192 254.034 91.3856 253.508 90.5139 253.508H88.2819V258.521ZM88.9056 255.68V254.064H90.4087C90.9723 254.064 91.2729 254.425 91.2729 254.876C91.2729 255.334 90.9723 255.68 90.4087 255.68H88.9056ZM88.9056 257.965V256.236H90.4387C91.055 256.236 91.3706 256.642 91.3706 257.1C91.3706 257.634 91.0249 257.965 90.4387 257.965H88.9056ZM95.2552 258.521H95.8189V256.026C95.8189 255.146 95.1801 254.801 94.4135 254.801C93.8198 254.801 93.3539 254.996 92.9631 255.402L93.2261 255.793C93.5493 255.447 93.9025 255.289 94.3384 255.289C94.8644 255.289 95.2552 255.567 95.2552 256.056V256.71C94.9621 256.371 94.5488 256.214 94.0528 256.214C93.4366 256.214 92.7827 256.597 92.7827 257.409C92.7827 258.198 93.4366 258.611 94.0528 258.611C94.5413 258.611 94.9546 258.438 95.2552 258.107V258.521ZM95.2552 257.754C95.0373 258.055 94.654 258.205 94.2557 258.205C93.7297 258.205 93.3614 257.874 93.3614 257.416C93.3614 256.95 93.7297 256.619 94.2557 256.619C94.654 256.619 95.0373 256.77 95.2552 257.07V257.754ZM99.3987 258.521H99.9623V255.973C99.9623 255.184 99.564 254.801 98.805 254.801C98.2639 254.801 97.7679 255.116 97.5124 255.417V254.891H96.9487V258.521H97.5124V255.868C97.7228 255.575 98.1436 255.304 98.587 255.304C99.0755 255.304 99.3987 255.507 99.3987 256.146V258.521ZM100.878 256.702C100.878 257.784 101.606 258.611 102.689 258.611C103.35 258.611 103.741 258.34 104.019 257.98L103.643 257.634C103.403 257.957 103.094 258.107 102.719 258.107C101.945 258.107 101.464 257.506 101.464 256.702C101.464 255.898 101.945 255.304 102.719 255.304C103.094 255.304 103.403 255.447 103.643 255.778L104.019 255.432C103.741 255.071 103.35 254.801 102.689 254.801C101.606 254.801 100.878 255.627 100.878 256.702ZM106.395 258.611C107.499 258.611 108.191 257.754 108.191 256.702C108.191 255.65 107.499 254.801 106.395 254.801C105.29 254.801 104.598 255.65 104.598 256.702C104.598 257.754 105.29 258.611 106.395 258.611ZM106.395 258.107C105.62 258.107 105.185 257.446 105.185 256.702C105.185 255.966 105.62 255.304 106.395 255.304C107.169 255.304 107.597 255.966 107.597 256.702C107.597 257.446 107.169 258.107 106.395 258.107ZM108.997 255.252C108.997 255.477 109.185 255.665 109.41 255.665C109.636 255.665 109.823 255.477 109.823 255.252C109.823 255.026 109.636 254.838 109.41 254.838C109.185 254.838 108.997 255.026 108.997 255.252ZM108.997 258.183C108.997 258.408 109.185 258.596 109.41 258.596C109.636 258.596 109.823 258.408 109.823 258.183C109.823 257.957 109.636 257.769 109.41 257.769C109.185 257.769 108.997 257.957 108.997 258.183ZM91.8816 274.521H92.573L90.5514 269.508H89.7774L87.7633 274.521H88.4547L88.8981 273.409H91.4382L91.8816 274.521ZM90.1682 270.064L91.2504 272.852H89.0785L90.1682 270.064ZM93.1983 275.453C93.6267 275.873 94.0475 275.994 94.6638 275.994C95.5506 275.994 96.3923 275.618 96.3923 274.416V270.891H95.8286V271.44C95.5355 271.041 95.0996 270.801 94.6112 270.801C93.6567 270.801 92.9954 271.522 92.9954 272.687C92.9954 273.859 93.6642 274.566 94.6112 274.566C95.1222 274.566 95.5656 274.288 95.8286 273.92V274.438C95.8286 275.235 95.265 275.528 94.6638 275.528C94.1452 275.528 93.7845 275.393 93.4839 275.032L93.1983 275.453ZM95.8286 273.476C95.6332 273.792 95.1973 274.07 94.7464 274.07C94.0175 274.07 93.5816 273.484 93.5816 272.687C93.5816 271.883 94.0175 271.304 94.7464 271.304C95.1973 271.304 95.6332 271.575 95.8286 271.89V273.476ZM99.7156 270.342H100.099L99.3624 269.26H98.8213L98.1074 270.342H98.4906L99.0918 269.546L99.7156 270.342ZM97.3107 272.702C97.3107 273.837 98.0848 274.611 99.1595 274.611C99.7532 274.611 100.242 274.416 100.602 274.055L100.332 273.687C100.046 273.98 99.6254 274.145 99.2121 274.145C98.4305 274.145 97.9495 273.574 97.9044 272.89H100.843V272.747C100.843 271.657 100.197 270.801 99.0994 270.801C98.0623 270.801 97.3107 271.65 97.3107 272.702ZM99.0918 271.267C99.9185 271.267 100.279 271.936 100.287 272.477H97.9044C97.9345 271.921 98.3178 271.267 99.0918 271.267ZM104.206 274.521H104.769V271.973C104.769 271.184 104.371 270.801 103.612 270.801C103.071 270.801 102.575 271.116 102.319 271.417V270.891H101.756V274.521H102.319V271.868C102.53 271.575 102.951 271.304 103.394 271.304C103.883 271.304 104.206 271.507 104.206 272.146V274.521ZM105.685 272.702C105.685 273.784 106.414 274.611 107.496 274.611C108.157 274.611 108.548 274.34 108.826 273.98L108.45 273.634C108.21 273.957 107.902 274.107 107.526 274.107C106.752 274.107 106.271 273.506 106.271 272.702C106.271 271.898 106.752 271.304 107.526 271.304C107.902 271.304 108.21 271.447 108.45 271.778L108.826 271.432C108.548 271.071 108.157 270.801 107.496 270.801C106.414 270.801 105.685 271.627 105.685 272.702ZM109.894 270.282C110.104 270.282 110.277 270.109 110.277 269.899C110.277 269.688 110.104 269.523 109.894 269.523C109.691 269.523 109.518 269.688 109.518 269.899C109.518 270.109 109.691 270.282 109.894 270.282ZM109.616 274.521H110.18V270.891H109.616V274.521ZM113.573 274.521H114.137V272.026C114.137 271.146 113.498 270.801 112.732 270.801C112.138 270.801 111.672 270.996 111.281 271.402L111.544 271.793C111.868 271.447 112.221 271.289 112.657 271.289C113.183 271.289 113.573 271.567 113.573 272.056V272.71C113.28 272.371 112.867 272.214 112.371 272.214C111.755 272.214 111.101 272.597 111.101 273.409C111.101 274.198 111.755 274.611 112.371 274.611C112.86 274.611 113.273 274.438 113.573 274.107V274.521ZM113.573 273.754C113.356 274.055 112.972 274.205 112.574 274.205C112.048 274.205 111.68 273.874 111.68 273.416C111.68 272.95 112.048 272.619 112.574 272.619C112.972 272.619 113.356 272.77 113.573 273.07V273.754ZM115.154 271.252C115.154 271.477 115.342 271.665 115.568 271.665C115.793 271.665 115.981 271.477 115.981 271.252C115.981 271.026 115.793 270.838 115.568 270.838C115.342 270.838 115.154 271.026 115.154 271.252ZM115.154 274.183C115.154 274.408 115.342 274.596 115.568 274.596C115.793 274.596 115.981 274.408 115.981 274.183C115.981 273.957 115.793 273.769 115.568 273.769C115.342 273.769 115.154 273.957 115.154 274.183Z" fill="#855B35"/>
<path d="M91.0097 343.69C91.9191 343.69 92.5203 343.269 92.9411 342.698L92.4075 342.405C92.122 342.833 91.6034 343.134 91.0097 343.134C89.9351 343.134 89.1009 342.285 89.1009 341.097C89.1009 339.902 89.9351 339.061 91.0097 339.061C91.6034 339.061 92.122 339.369 92.4075 339.79L92.9336 339.496C92.5353 338.933 91.9191 338.504 91.0097 338.504C89.5894 338.504 88.4546 339.557 88.4546 341.097C88.4546 342.638 89.5894 343.69 91.0097 343.69ZM93.7361 343.6H94.3598V341.608H95.7501C96.7421 341.608 97.3208 340.917 97.3208 340.098C97.3208 339.279 96.7572 338.587 95.7501 338.587H93.7361V343.6ZM96.6745 340.098C96.6745 340.661 96.2687 341.052 95.675 341.052H94.3598V339.143H95.675C96.2687 339.143 96.6745 339.534 96.6745 340.098ZM98.1468 343.6H98.7706V341.315H101.378V340.759H98.7706V339.143H101.431V338.587H98.1468V343.6ZM102.143 340.331C102.143 340.556 102.331 340.744 102.557 340.744C102.782 340.744 102.97 340.556 102.97 340.331C102.97 340.105 102.782 339.917 102.557 339.917C102.331 339.917 102.143 340.105 102.143 340.331ZM102.143 343.262C102.143 343.487 102.331 343.675 102.557 343.675C102.782 343.675 102.97 343.487 102.97 343.262C102.97 343.036 102.782 342.848 102.557 342.848C102.331 342.848 102.143 343.036 102.143 343.262ZM88.6575 359.6H90.9421C91.8589 359.6 92.3925 359.051 92.3925 358.247C92.3925 357.646 91.9491 357.097 91.4155 357.015C91.874 356.917 92.2948 356.496 92.2948 355.865C92.2948 355.113 91.7612 354.587 90.8895 354.587H88.6575V359.6ZM89.2812 356.759V355.143H90.7843C91.3479 355.143 91.6485 355.504 91.6485 355.955C91.6485 356.413 91.3479 356.759 90.7843 356.759H89.2812ZM89.2812 359.044V357.315H90.8143C91.4306 357.315 91.7462 357.721 91.7462 358.179C91.7462 358.713 91.4005 359.044 90.8143 359.044H89.2812ZM95.6308 359.6H96.1945V357.105C96.1945 356.225 95.5557 355.88 94.7891 355.88C94.1954 355.88 93.7295 356.075 93.3387 356.481L93.6017 356.872C93.9249 356.526 94.2781 356.368 94.714 356.368C95.2401 356.368 95.6308 356.646 95.6308 357.135V357.789C95.3378 357.45 94.9244 357.293 94.4284 357.293C93.8122 357.293 93.1584 357.676 93.1584 358.487C93.1584 359.277 93.8122 359.69 94.4284 359.69C94.9169 359.69 95.3302 359.517 95.6308 359.186V359.6ZM95.6308 358.833C95.4129 359.134 95.0296 359.284 94.6313 359.284C94.1053 359.284 93.737 358.953 93.737 358.495C93.737 358.029 94.1053 357.698 94.6313 357.698C95.0296 357.698 95.4129 357.849 95.6308 358.149V358.833ZM99.7743 359.6H100.338V357.052C100.338 356.263 99.9396 355.88 99.1806 355.88C98.6395 355.88 98.1435 356.195 97.888 356.496V355.97H97.3243V359.6H97.888V356.947C98.0984 356.654 98.5192 356.383 98.9626 356.383C99.4511 356.383 99.7743 356.586 99.7743 357.225V359.6ZM101.253 357.781C101.253 358.863 101.982 359.69 103.064 359.69C103.726 359.69 104.116 359.419 104.394 359.059L104.019 358.713C103.778 359.036 103.47 359.186 103.094 359.186C102.32 359.186 101.839 358.585 101.839 357.781C101.839 356.977 102.32 356.383 103.094 356.383C103.47 356.383 103.778 356.526 104.019 356.857L104.394 356.511C104.116 356.15 103.726 355.88 103.064 355.88C101.982 355.88 101.253 356.706 101.253 357.781ZM106.77 359.69C107.875 359.69 108.566 358.833 108.566 357.781C108.566 356.729 107.875 355.88 106.77 355.88C105.665 355.88 104.974 356.729 104.974 357.781C104.974 358.833 105.665 359.69 106.77 359.69ZM106.77 359.186C105.996 359.186 105.56 358.525 105.56 357.781C105.56 357.045 105.996 356.383 106.77 356.383C107.544 356.383 107.973 357.045 107.973 357.781C107.973 358.525 107.544 359.186 106.77 359.186ZM109.372 356.331C109.372 356.556 109.56 356.744 109.786 356.744C110.011 356.744 110.199 356.556 110.199 356.331C110.199 356.105 110.011 355.917 109.786 355.917C109.56 355.917 109.372 356.105 109.372 356.331ZM109.372 359.262C109.372 359.487 109.56 359.675 109.786 359.675C110.011 359.675 110.199 359.487 110.199 359.262C110.199 359.036 110.011 358.848 109.786 358.848C109.56 358.848 109.372 359.036 109.372 359.262ZM92.2572 375.6H92.9486L90.9271 370.587H90.153L88.1389 375.6H88.8303L89.2737 374.487H91.8138L92.2572 375.6ZM90.5438 371.143L91.626 373.931H89.4541L90.5438 371.143ZM93.5739 376.532C94.0023 376.952 94.4231 377.073 95.0394 377.073C95.9262 377.073 96.7679 376.697 96.7679 375.495V371.97H96.2042V372.519C95.9111 372.12 95.4753 371.88 94.9868 371.88C94.0323 371.88 93.371 372.601 93.371 373.766C93.371 374.938 94.0399 375.645 94.9868 375.645C95.4978 375.645 95.9412 375.367 96.2042 374.999V375.517C96.2042 376.314 95.6406 376.607 95.0394 376.607C94.5208 376.607 94.1601 376.471 93.8595 376.111L93.5739 376.532ZM96.2042 374.555C96.0088 374.871 95.573 375.149 95.122 375.149C94.3931 375.149 93.9572 374.563 93.9572 373.766C93.9572 372.962 94.3931 372.383 95.122 372.383C95.573 372.383 96.0088 372.654 96.2042 372.969V374.555ZM100.091 371.421H100.474L99.738 370.339H99.1969L98.483 371.421H98.8662L99.4675 370.625L100.091 371.421ZM97.6864 373.781C97.6864 374.916 98.4604 375.69 99.5351 375.69C100.129 375.69 100.617 375.495 100.978 375.134L100.707 374.766C100.422 375.059 100.001 375.224 99.5877 375.224C98.8061 375.224 98.3251 374.653 98.2801 373.969H101.218V373.826C101.218 372.736 100.572 371.88 99.475 371.88C98.4379 371.88 97.6864 372.729 97.6864 373.781ZM99.4675 372.346C100.294 372.346 100.655 373.015 100.662 373.556H98.2801C98.3101 372.999 98.6934 372.346 99.4675 372.346ZM104.581 375.6H105.145V373.052C105.145 372.263 104.747 371.88 103.988 371.88C103.447 371.88 102.951 372.195 102.695 372.496V371.97H102.131V375.6H102.695V372.947C102.905 372.654 103.326 372.383 103.77 372.383C104.258 372.383 104.581 372.586 104.581 373.225V375.6ZM106.06 373.781C106.06 374.863 106.789 375.69 107.871 375.69C108.533 375.69 108.923 375.419 109.202 375.059L108.826 374.713C108.585 375.036 108.277 375.186 107.901 375.186C107.127 375.186 106.646 374.585 106.646 373.781C106.646 372.977 107.127 372.383 107.901 372.383C108.277 372.383 108.585 372.526 108.826 372.857L109.202 372.511C108.923 372.15 108.533 371.88 107.871 371.88C106.789 371.88 106.06 372.706 106.06 373.781ZM110.27 371.361C110.48 371.361 110.653 371.188 110.653 370.978C110.653 370.767 110.48 370.602 110.27 370.602C110.067 370.602 109.894 370.767 109.894 370.978C109.894 371.188 110.067 371.361 110.27 371.361ZM109.992 375.6H110.555V371.97H109.992V375.6ZM113.949 375.6H114.513V373.105C114.513 372.225 113.874 371.88 113.107 371.88C112.514 371.88 112.048 372.075 111.657 372.481L111.92 372.872C112.243 372.526 112.596 372.368 113.032 372.368C113.558 372.368 113.949 372.646 113.949 373.135V373.789C113.656 373.45 113.243 373.293 112.747 373.293C112.13 373.293 111.477 373.676 111.477 374.487C111.477 375.277 112.13 375.69 112.747 375.69C113.235 375.69 113.648 375.517 113.949 375.186V375.6ZM113.949 374.833C113.731 375.134 113.348 375.284 112.95 375.284C112.423 375.284 112.055 374.953 112.055 374.495C112.055 374.029 112.423 373.698 112.95 373.698C113.348 373.698 113.731 373.849 113.949 374.149V374.833ZM115.53 372.331C115.53 372.556 115.718 372.744 115.943 372.744C116.169 372.744 116.356 372.556 116.356 372.331C116.356 372.105 116.169 371.917 115.943 371.917C115.718 371.917 115.53 372.105 115.53 372.331ZM115.53 375.262C115.53 375.487 115.718 375.675 115.943 375.675C116.169 375.675 116.356 375.487 116.356 375.262C116.356 375.036 116.169 374.848 115.943 374.848C115.718 374.848 115.53 375.036 115.53 375.262Z" fill="#855B35"/>
<path d="M132.095 242.521H132.967L131.682 240.514C132.321 240.432 132.929 239.951 132.929 239.049C132.929 238.124 132.276 237.508 131.321 237.508H129.209V242.521H129.961V240.589H130.9L132.095 242.521ZM132.155 239.049C132.155 239.575 131.765 239.928 131.224 239.928H129.961V238.169H131.224C131.765 238.169 132.155 238.523 132.155 239.049ZM137.462 241.1C137.462 240.101 136.636 239.815 135.854 239.605V238.139C136.252 238.207 136.621 238.387 136.906 238.688L137.35 238.132C136.974 237.749 136.478 237.508 135.854 237.448V236.749H135.321V237.44C134.389 237.508 133.75 238.087 133.75 238.861C133.75 239.808 134.554 240.086 135.321 240.281V241.92C134.757 241.852 134.313 241.559 134.02 241.236L133.592 241.814C133.975 242.243 134.546 242.551 135.321 242.603V243.272H135.854V242.596C136.996 242.506 137.462 241.822 137.462 241.1ZM134.524 238.808C134.524 238.417 134.84 238.147 135.321 238.109V239.462C134.87 239.334 134.524 239.169 134.524 238.808ZM135.854 241.92V240.424C136.328 240.567 136.696 240.74 136.696 241.168C136.696 241.484 136.47 241.852 135.854 241.92ZM139.931 241.792C140.254 242.243 140.9 242.611 141.772 242.611C142.907 242.611 143.606 242.002 143.606 241.161C143.606 240.371 142.914 239.981 142.441 239.936C142.937 239.845 143.53 239.477 143.53 238.778C143.53 237.937 142.794 237.433 141.772 237.433C140.968 237.433 140.374 237.771 139.998 238.215L140.397 238.681C140.765 238.305 141.178 238.102 141.704 238.102C142.298 238.102 142.779 238.372 142.779 238.883C142.779 239.402 142.283 239.627 141.674 239.627C141.479 239.627 141.216 239.627 141.133 239.62V240.304C141.208 240.296 141.471 240.296 141.674 240.296C142.403 240.296 142.854 240.529 142.854 241.085C142.854 241.611 142.441 241.942 141.749 241.942C141.186 241.942 140.667 241.687 140.351 241.303L139.931 241.792ZM144.405 242.13C144.405 242.385 144.616 242.603 144.871 242.603C145.127 242.603 145.345 242.385 145.345 242.13C145.345 241.874 145.127 241.664 144.871 241.664C144.616 241.664 144.405 241.874 144.405 242.13ZM146.166 242.521H149.698V241.859H147.361C148.736 240.8 149.676 239.921 149.676 238.944C149.676 237.944 148.826 237.433 147.925 237.433C147.226 237.433 146.542 237.711 146.128 238.23L146.572 238.718C146.88 238.35 147.338 238.102 147.932 238.102C148.421 238.102 148.909 238.357 148.909 238.944C148.909 239.733 148.045 240.484 146.166 241.927V242.521ZM150.561 240.018C150.561 241.258 151.132 242.611 152.523 242.611C153.913 242.611 154.484 241.258 154.484 240.018C154.484 238.778 153.913 237.433 152.523 237.433C151.132 237.433 150.561 238.778 150.561 240.018ZM153.717 240.018C153.717 240.995 153.409 241.942 152.523 241.942C151.636 241.942 151.328 240.995 151.328 240.018C151.328 239.041 151.636 238.102 152.523 238.102C153.409 238.102 153.717 239.041 153.717 240.018ZM155.177 240.018C155.177 241.258 155.748 242.611 157.139 242.611C158.529 242.611 159.1 241.258 159.1 240.018C159.1 238.778 158.529 237.433 157.139 237.433C155.748 237.433 155.177 238.778 155.177 240.018ZM158.334 240.018C158.334 240.995 158.026 241.942 157.139 241.942C156.252 241.942 155.944 240.995 155.944 240.018C155.944 239.041 156.252 238.102 157.139 238.102C158.026 238.102 158.334 239.041 158.334 240.018ZM159.979 243.498C160.362 243.227 160.64 242.776 160.64 242.288C160.64 241.889 160.392 241.664 160.114 241.664C159.859 241.664 159.656 241.867 159.656 242.122C159.656 242.37 159.829 242.551 160.062 242.551C160.099 242.551 160.159 242.536 160.174 242.536C160.137 242.784 159.904 243.084 159.663 243.235L159.979 243.498ZM161.371 240.018C161.371 241.258 161.943 242.611 163.333 242.611C164.723 242.611 165.294 241.258 165.294 240.018C165.294 238.778 164.723 237.433 163.333 237.433C161.943 237.433 161.371 238.778 161.371 240.018ZM164.528 240.018C164.528 240.995 164.22 241.942 163.333 241.942C162.446 241.942 162.138 240.995 162.138 240.018C162.138 239.041 162.446 238.102 163.333 238.102C164.22 238.102 164.528 239.041 164.528 240.018ZM165.988 240.018C165.988 241.258 166.559 242.611 167.949 242.611C169.339 242.611 169.911 241.258 169.911 240.018C169.911 238.778 169.339 237.433 167.949 237.433C166.559 237.433 165.988 238.778 165.988 240.018ZM169.144 240.018C169.144 240.995 168.836 241.942 167.949 241.942C167.062 241.942 166.754 240.995 166.754 240.018C166.754 239.041 167.062 238.102 167.949 238.102C168.836 238.102 169.144 239.041 169.144 240.018ZM128.999 256.026C128.999 257.401 129.563 258.611 130.998 258.611C132.103 258.611 132.802 257.852 132.802 256.95C132.802 255.883 132.043 255.342 131.141 255.342C130.525 255.342 129.984 255.74 129.766 256.078C129.758 256.026 129.758 255.973 129.758 255.913C129.758 254.981 130.216 254.102 131.126 254.102C131.622 254.102 131.915 254.29 132.17 254.583L132.539 254.012C132.216 253.666 131.757 253.433 131.126 253.433C129.69 253.433 128.999 254.62 128.999 256.026ZM132.043 256.973C132.043 257.416 131.682 257.942 130.96 257.942C130.141 257.942 129.833 257.243 129.773 256.657C130.036 256.259 130.487 255.988 130.953 255.988C131.547 255.988 132.043 256.304 132.043 256.973ZM133.589 257.822C133.979 258.31 134.55 258.611 135.407 258.611C136.467 258.611 137.248 257.965 137.248 256.935C137.248 255.905 136.489 255.327 135.648 255.327C135.159 255.327 134.738 255.53 134.498 255.77V254.169H136.918V253.508H133.746V256.259L134.287 256.432C134.618 256.116 134.979 255.981 135.415 255.981C136.061 255.981 136.489 256.364 136.489 256.965C136.489 257.514 136.054 257.942 135.4 257.942C134.814 257.942 134.363 257.717 134.032 257.311L133.589 257.822ZM138.058 257.822C138.449 258.31 139.02 258.611 139.877 258.611C140.936 258.611 141.718 257.965 141.718 256.935C141.718 255.905 140.959 255.327 140.117 255.327C139.629 255.327 139.208 255.53 138.967 255.77V254.169H141.387V253.508H138.216V256.259L138.757 256.432C139.088 256.116 139.448 255.981 139.884 255.981C140.531 255.981 140.959 256.364 140.959 256.965C140.959 257.514 140.523 257.942 139.869 257.942C139.283 257.942 138.832 257.717 138.501 257.311L138.058 257.822ZM146.17 256.995H147.973V256.409H146.17V256.995ZM150.691 258.521H153.103C154.028 258.521 154.554 257.957 154.554 257.168C154.554 256.559 154.118 256.018 153.584 255.936C154.043 255.838 154.456 255.417 154.456 254.786C154.456 254.057 153.937 253.508 153.043 253.508H150.691V258.521ZM151.442 255.635V254.169H152.9C153.404 254.169 153.682 254.493 153.682 254.906C153.682 255.319 153.404 255.635 152.9 255.635H151.442ZM151.442 257.859V256.296H152.938C153.494 256.296 153.78 256.657 153.78 257.07C153.78 257.559 153.464 257.859 152.938 257.859H151.442ZM157.708 258.521H158.384V256.071C158.384 255.146 157.715 254.801 156.926 254.801C156.34 254.801 155.844 254.996 155.438 255.394L155.731 255.86C156.054 255.537 156.408 255.379 156.821 255.379C157.339 255.379 157.708 255.65 157.708 256.101V256.702C157.43 256.379 157.009 256.221 156.52 256.221C155.912 256.221 155.258 256.582 155.258 257.409C155.258 258.205 155.919 258.611 156.52 258.611C157.009 258.611 157.422 258.438 157.708 258.122V258.521ZM157.708 257.724C157.505 257.995 157.152 258.137 156.776 258.137C156.287 258.137 155.942 257.844 155.942 257.416C155.942 256.988 156.287 256.695 156.776 256.695C157.152 256.695 157.505 256.837 157.708 257.108V257.724ZM161.918 258.521H162.594V255.973C162.594 255.207 162.196 254.801 161.429 254.801C160.866 254.801 160.385 255.109 160.144 255.402V254.891H159.468V258.521H160.144V255.928C160.34 255.657 160.723 255.402 161.144 255.402C161.61 255.402 161.918 255.597 161.918 256.199V258.521ZM163.44 256.702C163.44 257.792 164.192 258.611 165.289 258.611C165.973 258.611 166.386 258.325 166.649 257.972L166.198 257.559C165.981 257.859 165.687 258.01 165.319 258.01C164.605 258.01 164.147 257.454 164.147 256.702C164.147 255.951 164.605 255.402 165.319 255.402C165.687 255.402 165.981 255.545 166.198 255.853L166.649 255.44C166.386 255.086 165.973 254.801 165.289 254.801C164.192 254.801 163.44 255.612 163.44 256.702ZM169.002 258.611C170.137 258.611 170.836 257.754 170.836 256.702C170.836 255.657 170.137 254.801 169.002 254.801C167.875 254.801 167.169 255.657 167.169 256.702C167.169 257.754 167.875 258.611 169.002 258.611ZM169.002 258.01C168.281 258.01 167.875 257.393 167.875 256.702C167.875 256.018 168.281 255.402 169.002 255.402C169.731 255.402 170.13 256.018 170.13 256.702C170.13 257.393 169.731 258.01 169.002 258.01ZM175.12 258.521H176.06L178.051 253.508H177.194L175.586 257.702L173.985 253.508H173.129L175.12 258.521ZM179.798 258.611C180.933 258.611 181.632 257.754 181.632 256.702C181.632 255.657 180.933 254.801 179.798 254.801C178.671 254.801 177.964 255.657 177.964 256.702C177.964 257.754 178.671 258.611 179.798 258.611ZM179.798 258.01C179.077 258.01 178.671 257.393 178.671 256.702C178.671 256.018 179.077 255.402 179.798 255.402C180.527 255.402 180.925 256.018 180.925 256.702C180.925 257.393 180.527 258.01 179.798 258.01ZM183.49 258.611C183.843 258.611 184.054 258.513 184.196 258.378L184.024 257.867C183.956 257.942 183.813 258.01 183.655 258.01C183.422 258.01 183.302 257.822 183.302 257.566V255.485H184.039V254.891H183.302V253.899H182.626V254.891H182.025V255.485H182.626V257.717C182.626 258.288 182.919 258.611 183.49 258.611ZM186.396 258.611C187.531 258.611 188.23 257.754 188.23 256.702C188.23 255.657 187.531 254.801 186.396 254.801C185.269 254.801 184.562 255.657 184.562 256.702C184.562 257.754 185.269 258.611 186.396 258.611ZM186.396 258.01C185.674 258.01 185.269 257.393 185.269 256.702C185.269 256.018 185.674 255.402 186.396 255.402C187.125 255.402 187.523 256.018 187.523 256.702C187.523 257.393 187.125 258.01 186.396 258.01ZM189.088 258.521H189.765V255.996C189.922 255.725 190.381 255.47 190.719 255.47C190.809 255.47 190.884 255.477 190.952 255.492V254.808C190.471 254.808 190.043 255.086 189.765 255.447V254.891H189.088V258.521ZM193.867 258.521H194.543V256.071C194.543 255.146 193.875 254.801 193.085 254.801C192.499 254.801 192.003 254.996 191.597 255.394L191.891 255.86C192.214 255.537 192.567 255.379 192.98 255.379C193.499 255.379 193.867 255.65 193.867 256.101V256.702C193.589 256.379 193.168 256.221 192.68 256.221C192.071 256.221 191.417 256.582 191.417 257.409C191.417 258.205 192.078 258.611 192.68 258.611C193.168 258.611 193.581 258.438 193.867 258.122V258.521ZM193.867 257.724C193.664 257.995 193.311 258.137 192.935 258.137C192.447 258.137 192.101 257.844 192.101 257.416C192.101 256.988 192.447 256.695 192.935 256.695C193.311 256.695 193.664 256.837 193.867 257.108V257.724ZM198.077 258.521H198.754V255.973C198.754 255.207 198.355 254.801 197.589 254.801C197.025 254.801 196.544 255.109 196.304 255.402V254.891H195.627V258.521H196.304V255.928C196.499 255.657 196.882 255.402 197.303 255.402C197.769 255.402 198.077 255.597 198.077 256.199V258.521ZM200.825 258.611C201.178 258.611 201.388 258.513 201.531 258.378L201.358 257.867C201.291 257.942 201.148 258.01 200.99 258.01C200.757 258.01 200.637 257.822 200.637 257.566V255.485H201.373V254.891H200.637V253.899H199.961V254.891H199.359V255.485H199.961V257.717C199.961 258.288 200.254 258.611 200.825 258.611ZM202.453 254.282C202.694 254.282 202.889 254.094 202.889 253.854C202.889 253.613 202.694 253.418 202.453 253.418C202.22 253.418 202.017 253.613 202.017 253.854C202.017 254.094 202.22 254.282 202.453 254.282ZM202.122 258.521H202.799V254.891H202.122V258.521ZM208.288 258.521H208.964V255.898C208.964 255.169 208.603 254.801 207.935 254.801C207.401 254.801 206.92 255.139 206.71 255.477C206.597 255.086 206.274 254.801 205.725 254.801C205.184 254.801 204.703 255.177 204.553 255.402V254.891H203.876V258.521H204.553V255.928C204.733 255.665 205.086 255.402 205.44 255.402C205.898 255.402 206.078 255.68 206.078 256.101V258.521H206.755V255.921C206.928 255.657 207.288 255.402 207.657 255.402C208.1 255.402 208.288 255.68 208.288 256.101V258.521ZM131.569 274.611C132.554 274.611 133.162 274.137 133.561 273.551L132.922 273.213C132.659 273.634 132.163 273.942 131.569 273.942C130.555 273.942 129.773 273.138 129.773 272.018C129.773 270.891 130.555 270.094 131.569 270.094C132.163 270.094 132.659 270.402 132.922 270.823L133.561 270.485C133.17 269.899 132.554 269.425 131.569 269.425C130.141 269.425 128.999 270.478 128.999 272.018C128.999 273.559 130.141 274.611 131.569 274.611ZM135.903 274.611C137.038 274.611 137.737 273.754 137.737 272.702C137.737 271.657 137.038 270.801 135.903 270.801C134.776 270.801 134.07 271.657 134.07 272.702C134.07 273.754 134.776 274.611 135.903 274.611ZM135.903 274.01C135.182 274.01 134.776 273.393 134.776 272.702C134.776 272.018 135.182 271.402 135.903 271.402C136.632 271.402 137.031 272.018 137.031 272.702C137.031 273.393 136.632 274.01 135.903 274.01ZM141.046 274.521H141.722V271.973C141.722 271.207 141.324 270.801 140.557 270.801C139.994 270.801 139.513 271.109 139.272 271.402V270.891H138.596V274.521H139.272V271.928C139.467 271.657 139.851 271.402 140.272 271.402C140.738 271.402 141.046 271.597 141.046 272.199V274.521ZM143.793 274.611C144.146 274.611 144.357 274.513 144.5 274.378L144.327 273.867C144.259 273.942 144.116 274.01 143.958 274.01C143.726 274.01 143.605 273.822 143.605 273.566V271.485H144.342V270.891H143.605V269.899H142.929V270.891H142.328V271.485H142.929V273.717C142.929 274.288 143.222 274.611 143.793 274.611ZM147.33 274.521H148.007V272.071C148.007 271.146 147.338 270.801 146.549 270.801C145.963 270.801 145.467 270.996 145.061 271.394L145.354 271.86C145.677 271.537 146.03 271.379 146.443 271.379C146.962 271.379 147.33 271.65 147.33 272.101V272.702C147.052 272.379 146.631 272.221 146.143 272.221C145.534 272.221 144.88 272.582 144.88 273.409C144.88 274.205 145.542 274.611 146.143 274.611C146.631 274.611 147.045 274.438 147.33 274.122V274.521ZM147.33 273.724C147.127 273.995 146.774 274.137 146.398 274.137C145.91 274.137 145.564 273.844 145.564 273.416C145.564 272.988 145.91 272.695 146.398 272.695C146.774 272.695 147.127 272.837 147.33 273.108V273.724ZM148.97 271.312C148.97 271.56 149.181 271.778 149.436 271.778C149.692 271.778 149.91 271.56 149.91 271.312C149.91 271.056 149.692 270.838 149.436 270.838C149.181 270.838 148.97 271.056 148.97 271.312ZM148.97 274.13C148.97 274.385 149.181 274.603 149.436 274.603C149.692 274.603 149.91 274.385 149.91 274.13C149.91 273.874 149.692 273.664 149.436 273.664C149.181 273.664 148.97 273.874 148.97 274.13ZM152.623 272.018C152.623 273.258 153.195 274.611 154.585 274.611C155.975 274.611 156.546 273.258 156.546 272.018C156.546 270.778 155.975 269.433 154.585 269.433C153.195 269.433 152.623 270.778 152.623 272.018ZM155.78 272.018C155.78 272.995 155.472 273.942 154.585 273.942C153.698 273.942 153.39 272.995 153.39 272.018C153.39 271.041 153.698 270.102 154.585 270.102C155.472 270.102 155.78 271.041 155.78 272.018ZM157.24 272.018C157.24 273.258 157.811 274.611 159.201 274.611C160.591 274.611 161.163 273.258 161.163 272.018C161.163 270.778 160.591 269.433 159.201 269.433C157.811 269.433 157.24 270.778 157.24 272.018ZM160.396 272.018C160.396 272.995 160.088 273.942 159.201 273.942C158.314 273.942 158.006 272.995 158.006 272.018C158.006 271.041 158.314 270.102 159.201 270.102C160.088 270.102 160.396 271.041 160.396 272.018ZM161.856 272.018C161.856 273.258 162.427 274.611 163.817 274.611C165.208 274.611 165.779 273.258 165.779 272.018C165.779 270.778 165.208 269.433 163.817 269.433C162.427 269.433 161.856 270.778 161.856 272.018ZM165.012 272.018C165.012 272.995 164.704 273.942 163.817 273.942C162.931 273.942 162.622 272.995 162.622 272.018C162.622 271.041 162.931 270.102 163.817 270.102C164.704 270.102 165.012 271.041 165.012 272.018ZM166.472 272.018C166.472 273.258 167.043 274.611 168.434 274.611C169.824 274.611 170.395 273.258 170.395 272.018C170.395 270.778 169.824 269.433 168.434 269.433C167.043 269.433 166.472 270.778 166.472 272.018ZM169.628 272.018C169.628 272.995 169.32 273.942 168.434 273.942C167.547 273.942 167.239 272.995 167.239 272.018C167.239 271.041 167.547 270.102 168.434 270.102C169.32 270.102 169.628 271.041 169.628 272.018ZM171.088 272.018C171.088 273.258 171.66 274.611 173.05 274.611C174.44 274.611 175.011 273.258 175.011 272.018C175.011 270.778 174.44 269.433 173.05 269.433C171.66 269.433 171.088 270.778 171.088 272.018ZM174.245 272.018C174.245 272.995 173.937 273.942 173.05 273.942C172.163 273.942 171.855 272.995 171.855 272.018C171.855 271.041 172.163 270.102 173.05 270.102C173.937 270.102 174.245 271.041 174.245 272.018ZM175.584 272.995H177.388V272.409H175.584V272.995ZM177.958 272.018C177.958 273.258 178.529 274.611 179.919 274.611C181.309 274.611 181.881 273.258 181.881 272.018C181.881 270.778 181.309 269.433 179.919 269.433C178.529 269.433 177.958 270.778 177.958 272.018ZM181.114 272.018C181.114 272.995 180.806 273.942 179.919 273.942C179.032 273.942 178.724 272.995 178.724 272.018C178.724 271.041 179.032 270.102 179.919 270.102C180.806 270.102 181.114 271.041 181.114 272.018Z" fill="#855B35"/>
<path d="M128.999 342.6C128.999 343.84 129.57 345.193 130.96 345.193C132.351 345.193 132.922 343.84 132.922 342.6C132.922 341.36 132.351 340.015 130.96 340.015C129.57 340.015 128.999 341.36 128.999 342.6ZM132.155 342.6C132.155 343.577 131.847 344.524 130.96 344.524C130.074 344.524 129.766 343.577 129.766 342.6C129.766 341.623 130.074 340.684 130.96 340.684C131.847 340.684 132.155 341.623 132.155 342.6ZM133.615 342.6C133.615 343.84 134.186 345.193 135.577 345.193C136.967 345.193 137.538 343.84 137.538 342.6C137.538 341.36 136.967 340.015 135.577 340.015C134.186 340.015 133.615 341.36 133.615 342.6ZM136.772 342.6C136.772 343.577 136.464 344.524 135.577 344.524C134.69 344.524 134.382 343.577 134.382 342.6C134.382 341.623 134.69 340.684 135.577 340.684C136.464 340.684 136.772 341.623 136.772 342.6ZM138.094 344.712C138.094 344.968 138.304 345.185 138.56 345.185C138.815 345.185 139.033 344.968 139.033 344.712C139.033 344.456 138.815 344.246 138.56 344.246C138.304 344.246 138.094 344.456 138.094 344.712ZM139.809 342.6C139.809 343.84 140.381 345.193 141.771 345.193C143.161 345.193 143.732 343.84 143.732 342.6C143.732 341.36 143.161 340.015 141.771 340.015C140.381 340.015 139.809 341.36 139.809 342.6ZM142.966 342.6C142.966 343.577 142.658 344.524 141.771 344.524C140.884 344.524 140.576 343.577 140.576 342.6C140.576 341.623 140.884 340.684 141.771 340.684C142.658 340.684 142.966 341.623 142.966 342.6ZM144.426 342.6C144.426 343.84 144.997 345.193 146.387 345.193C147.777 345.193 148.349 343.84 148.349 342.6C148.349 341.36 147.777 340.015 146.387 340.015C144.997 340.015 144.426 341.36 144.426 342.6ZM147.582 342.6C147.582 343.577 147.274 344.524 146.387 344.524C145.5 344.524 145.192 343.577 145.192 342.6C145.192 341.623 145.5 340.684 146.387 340.684C147.274 340.684 147.582 341.623 147.582 342.6ZM149.042 342.6C149.042 343.84 149.613 345.193 151.003 345.193C152.394 345.193 152.965 343.84 152.965 342.6C152.965 341.36 152.394 340.015 151.003 340.015C149.613 340.015 149.042 341.36 149.042 342.6ZM152.198 342.6C152.198 343.577 151.89 344.524 151.003 344.524C150.117 344.524 149.808 343.577 149.808 342.6C149.808 341.623 150.117 340.684 151.003 340.684C151.89 340.684 152.198 341.623 152.198 342.6ZM153.52 344.712C153.52 344.968 153.731 345.185 153.986 345.185C154.242 345.185 154.46 344.968 154.46 344.712C154.46 344.456 154.242 344.246 153.986 344.246C153.731 344.246 153.52 344.456 153.52 344.712ZM155.236 342.6C155.236 343.84 155.807 345.193 157.198 345.193C158.588 345.193 159.159 343.84 159.159 342.6C159.159 341.36 158.588 340.015 157.198 340.015C155.807 340.015 155.236 341.36 155.236 342.6ZM158.392 342.6C158.392 343.577 158.084 344.524 157.198 344.524C156.311 344.524 156.003 343.577 156.003 342.6C156.003 341.623 156.311 340.684 157.198 340.684C158.084 340.684 158.392 341.623 158.392 342.6ZM159.852 342.6C159.852 343.84 160.423 345.193 161.814 345.193C163.204 345.193 163.775 343.84 163.775 342.6C163.775 341.36 163.204 340.015 161.814 340.015C160.423 340.015 159.852 341.36 159.852 342.6ZM163.009 342.6C163.009 343.577 162.701 344.524 161.814 344.524C160.927 344.524 160.619 343.577 160.619 342.6C160.619 341.623 160.927 340.684 161.814 340.684C162.701 340.684 163.009 341.623 163.009 342.6ZM164.469 342.6C164.469 343.84 165.04 345.193 166.43 345.193C167.82 345.193 168.391 343.84 168.391 342.6C168.391 341.36 167.82 340.015 166.43 340.015C165.04 340.015 164.469 341.36 164.469 342.6ZM167.625 342.6C167.625 343.577 167.317 344.524 166.43 344.524C165.543 344.524 165.235 343.577 165.235 342.6C165.235 341.623 165.543 340.684 166.43 340.684C167.317 340.684 167.625 341.623 167.625 342.6ZM168.739 345.253H169.258L171.039 339.94H170.52L168.739 345.253ZM171.382 342.6C171.382 343.84 171.953 345.193 173.343 345.193C174.734 345.193 175.305 343.84 175.305 342.6C175.305 341.36 174.734 340.015 173.343 340.015C171.953 340.015 171.382 341.36 171.382 342.6ZM174.538 342.6C174.538 343.577 174.23 344.524 173.343 344.524C172.457 344.524 172.148 343.577 172.148 342.6C172.148 341.623 172.457 340.684 173.343 340.684C174.23 340.684 174.538 341.623 174.538 342.6ZM175.998 342.6C175.998 343.84 176.569 345.193 177.96 345.193C179.35 345.193 179.921 343.84 179.921 342.6C179.921 341.36 179.35 340.015 177.96 340.015C176.569 340.015 175.998 341.36 175.998 342.6ZM179.155 342.6C179.155 343.577 178.846 344.524 177.96 344.524C177.073 344.524 176.765 343.577 176.765 342.6C176.765 341.623 177.073 340.684 177.96 340.684C178.846 340.684 179.155 341.623 179.155 342.6ZM180.614 342.6C180.614 343.84 181.186 345.193 182.576 345.193C183.966 345.193 184.537 343.84 184.537 342.6C184.537 341.36 183.966 340.015 182.576 340.015C181.186 340.015 180.614 341.36 180.614 342.6ZM183.771 342.6C183.771 343.577 183.463 344.524 182.576 344.524C181.689 344.524 181.381 343.577 181.381 342.6C181.381 341.623 181.689 340.684 182.576 340.684C183.463 340.684 183.771 341.623 183.771 342.6ZM186.275 345.103H187.027V340.09H186.365L185.02 341.465L185.464 341.924L186.275 341.075V345.103ZM187.811 343.577H189.615V342.991H187.811V343.577ZM190.185 342.6C190.185 343.84 190.756 345.193 192.146 345.193C193.536 345.193 194.107 343.84 194.107 342.6C194.107 341.36 193.536 340.015 192.146 340.015C190.756 340.015 190.185 341.36 190.185 342.6ZM193.341 342.6C193.341 343.577 193.033 344.524 192.146 344.524C191.259 344.524 190.951 343.577 190.951 342.6C190.951 341.623 191.259 340.684 192.146 340.684C193.033 340.684 193.341 341.623 193.341 342.6ZM194.801 342.6C194.801 343.84 195.372 345.193 196.762 345.193C198.153 345.193 198.724 343.84 198.724 342.6C198.724 341.36 198.153 340.015 196.762 340.015C195.372 340.015 194.801 341.36 194.801 342.6ZM197.957 342.6C197.957 343.577 197.649 344.524 196.762 344.524C195.875 344.524 195.567 343.577 195.567 342.6C195.567 341.623 195.875 340.684 196.762 340.684C197.649 340.684 197.957 341.623 197.957 342.6ZM128.999 358.608C128.999 359.983 129.563 361.193 130.998 361.193C132.103 361.193 132.802 360.434 132.802 359.532C132.802 358.465 132.043 357.924 131.141 357.924C130.525 357.924 129.984 358.322 129.766 358.66C129.758 358.608 129.758 358.555 129.758 358.495C129.758 357.563 130.216 356.684 131.126 356.684C131.622 356.684 131.915 356.872 132.17 357.165L132.539 356.594C132.216 356.248 131.757 356.015 131.126 356.015C129.69 356.015 128.999 357.202 128.999 358.608ZM132.043 359.555C132.043 359.998 131.682 360.524 130.96 360.524C130.141 360.524 129.833 359.825 129.773 359.239C130.036 358.841 130.487 358.57 130.953 358.57C131.547 358.57 132.043 358.886 132.043 359.555ZM133.589 360.404C133.979 360.892 134.55 361.193 135.407 361.193C136.467 361.193 137.248 360.547 137.248 359.517C137.248 358.488 136.489 357.909 135.648 357.909C135.159 357.909 134.738 358.112 134.498 358.352V356.752H136.918V356.09H133.746V358.841L134.287 359.014C134.618 358.698 134.979 358.563 135.415 358.563C136.061 358.563 136.489 358.946 136.489 359.547C136.489 360.096 136.054 360.524 135.4 360.524C134.814 360.524 134.363 360.299 134.032 359.893L133.589 360.404ZM138.058 360.404C138.449 360.892 139.02 361.193 139.877 361.193C140.936 361.193 141.718 360.547 141.718 359.517C141.718 358.488 140.959 357.909 140.117 357.909C139.629 357.909 139.208 358.112 138.967 358.352V356.752H141.387V356.09H138.216V358.841L138.757 359.014C139.088 358.698 139.448 358.563 139.884 358.563C140.531 358.563 140.959 358.946 140.959 359.547C140.959 360.096 140.523 360.524 139.869 360.524C139.283 360.524 138.832 360.299 138.501 359.893L138.058 360.404ZM146.17 359.577H147.973V358.991H146.17V359.577ZM150.691 361.103H153.103C154.028 361.103 154.554 360.539 154.554 359.75C154.554 359.141 154.118 358.6 153.584 358.518C154.043 358.42 154.456 357.999 154.456 357.368C154.456 356.639 153.937 356.09 153.043 356.09H150.691V361.103ZM151.442 358.217V356.752H152.9C153.404 356.752 153.682 357.075 153.682 357.488C153.682 357.901 153.404 358.217 152.9 358.217H151.442ZM151.442 360.441V358.878H152.938C153.494 358.878 153.78 359.239 153.78 359.652C153.78 360.141 153.464 360.441 152.938 360.441H151.442ZM157.708 361.103H158.384V358.653C158.384 357.728 157.715 357.383 156.926 357.383C156.34 357.383 155.844 357.578 155.438 357.976L155.731 358.442C156.054 358.119 156.408 357.961 156.821 357.961C157.339 357.961 157.708 358.232 157.708 358.683V359.284C157.43 358.961 157.009 358.803 156.52 358.803C155.912 358.803 155.258 359.164 155.258 359.991C155.258 360.787 155.919 361.193 156.52 361.193C157.009 361.193 157.422 361.02 157.708 360.704V361.103ZM157.708 360.306C157.505 360.577 157.152 360.72 156.776 360.72C156.287 360.72 155.942 360.426 155.942 359.998C155.942 359.57 156.287 359.277 156.776 359.277C157.152 359.277 157.505 359.419 157.708 359.69V360.306ZM161.918 361.103H162.594V358.555C162.594 357.789 162.196 357.383 161.429 357.383C160.866 357.383 160.385 357.691 160.144 357.984V357.473H159.468V361.103H160.144V358.51C160.34 358.24 160.723 357.984 161.144 357.984C161.61 357.984 161.918 358.179 161.918 358.781V361.103ZM163.44 359.284C163.44 360.374 164.192 361.193 165.289 361.193C165.973 361.193 166.386 360.907 166.649 360.554L166.198 360.141C165.981 360.441 165.687 360.592 165.319 360.592C164.605 360.592 164.147 360.036 164.147 359.284C164.147 358.533 164.605 357.984 165.319 357.984C165.687 357.984 165.981 358.127 166.198 358.435L166.649 358.022C166.386 357.668 165.973 357.383 165.289 357.383C164.192 357.383 163.44 358.194 163.44 359.284ZM169.002 361.193C170.137 361.193 170.836 360.336 170.836 359.284C170.836 358.24 170.137 357.383 169.002 357.383C167.875 357.383 167.169 358.24 167.169 359.284C167.169 360.336 167.875 361.193 169.002 361.193ZM169.002 360.592C168.281 360.592 167.875 359.976 167.875 359.284C167.875 358.6 168.281 357.984 169.002 357.984C169.731 357.984 170.13 358.6 170.13 359.284C170.13 359.976 169.731 360.592 169.002 360.592ZM175.12 361.103H176.06L178.051 356.09H177.194L175.586 360.284L173.985 356.09H173.129L175.12 361.103ZM179.798 361.193C180.933 361.193 181.632 360.336 181.632 359.284C181.632 358.24 180.933 357.383 179.798 357.383C178.671 357.383 177.964 358.24 177.964 359.284C177.964 360.336 178.671 361.193 179.798 361.193ZM179.798 360.592C179.077 360.592 178.671 359.976 178.671 359.284C178.671 358.6 179.077 357.984 179.798 357.984C180.527 357.984 180.925 358.6 180.925 359.284C180.925 359.976 180.527 360.592 179.798 360.592ZM183.49 361.193C183.843 361.193 184.054 361.095 184.196 360.96L184.024 360.449C183.956 360.524 183.813 360.592 183.655 360.592C183.422 360.592 183.302 360.404 183.302 360.148V358.067H184.039V357.473H183.302V356.481H182.626V357.473H182.025V358.067H182.626V360.299C182.626 360.87 182.919 361.193 183.49 361.193ZM186.396 361.193C187.531 361.193 188.23 360.336 188.23 359.284C188.23 358.24 187.531 357.383 186.396 357.383C185.269 357.383 184.562 358.24 184.562 359.284C184.562 360.336 185.269 361.193 186.396 361.193ZM186.396 360.592C185.674 360.592 185.269 359.976 185.269 359.284C185.269 358.6 185.674 357.984 186.396 357.984C187.125 357.984 187.523 358.6 187.523 359.284C187.523 359.976 187.125 360.592 186.396 360.592ZM189.088 361.103H189.765V358.578C189.922 358.307 190.381 358.052 190.719 358.052C190.809 358.052 190.884 358.059 190.952 358.074V357.39C190.471 357.39 190.043 357.668 189.765 358.029V357.473H189.088V361.103ZM193.867 361.103H194.543V358.653C194.543 357.728 193.875 357.383 193.085 357.383C192.499 357.383 192.003 357.578 191.597 357.976L191.891 358.442C192.214 358.119 192.567 357.961 192.98 357.961C193.499 357.961 193.867 358.232 193.867 358.683V359.284C193.589 358.961 193.168 358.803 192.68 358.803C192.071 358.803 191.417 359.164 191.417 359.991C191.417 360.787 192.078 361.193 192.68 361.193C193.168 361.193 193.581 361.02 193.867 360.704V361.103ZM193.867 360.306C193.664 360.577 193.311 360.72 192.935 360.72C192.447 360.72 192.101 360.426 192.101 359.998C192.101 359.57 192.447 359.277 192.935 359.277C193.311 359.277 193.664 359.419 193.867 359.69V360.306ZM198.077 361.103H198.754V358.555C198.754 357.789 198.355 357.383 197.589 357.383C197.025 357.383 196.544 357.691 196.304 357.984V357.473H195.627V361.103H196.304V358.51C196.499 358.24 196.882 357.984 197.303 357.984C197.769 357.984 198.077 358.179 198.077 358.781V361.103ZM200.825 361.193C201.178 361.193 201.388 361.095 201.531 360.96L201.358 360.449C201.291 360.524 201.148 360.592 200.99 360.592C200.757 360.592 200.637 360.404 200.637 360.148V358.067H201.373V357.473H200.637V356.481H199.961V357.473H199.359V358.067H199.961V360.299C199.961 360.87 200.254 361.193 200.825 361.193ZM202.453 356.864C202.694 356.864 202.889 356.676 202.889 356.436C202.889 356.195 202.694 356 202.453 356C202.22 356 202.017 356.195 202.017 356.436C202.017 356.676 202.22 356.864 202.453 356.864ZM202.122 361.103H202.799V357.473H202.122V361.103ZM208.288 361.103H208.964V358.48C208.964 357.751 208.603 357.383 207.935 357.383C207.401 357.383 206.92 357.721 206.71 358.059C206.597 357.668 206.274 357.383 205.725 357.383C205.184 357.383 204.703 357.759 204.553 357.984V357.473H203.876V361.103H204.553V358.51C204.733 358.247 205.086 357.984 205.44 357.984C205.898 357.984 206.078 358.262 206.078 358.683V361.103H206.755V358.503C206.928 358.24 207.288 357.984 207.657 357.984C208.1 357.984 208.288 358.262 208.288 358.683V361.103ZM131.569 377.193C132.554 377.193 133.162 376.72 133.561 376.133L132.922 375.795C132.659 376.216 132.163 376.524 131.569 376.524C130.555 376.524 129.773 375.72 129.773 374.6C129.773 373.473 130.555 372.676 131.569 372.676C132.163 372.676 132.659 372.984 132.922 373.405L133.561 373.067C133.17 372.481 132.554 372.008 131.569 372.008C130.141 372.008 128.999 373.06 128.999 374.6C128.999 376.141 130.141 377.193 131.569 377.193ZM135.903 377.193C137.038 377.193 137.737 376.336 137.737 375.284C137.737 374.24 137.038 373.383 135.903 373.383C134.776 373.383 134.07 374.24 134.07 375.284C134.07 376.336 134.776 377.193 135.903 377.193ZM135.903 376.592C135.182 376.592 134.776 375.976 134.776 375.284C134.776 374.6 135.182 373.984 135.903 373.984C136.632 373.984 137.031 374.6 137.031 375.284C137.031 375.976 136.632 376.592 135.903 376.592ZM141.046 377.103H141.722V374.555C141.722 373.789 141.324 373.383 140.557 373.383C139.994 373.383 139.513 373.691 139.272 373.984V373.473H138.596V377.103H139.272V374.51C139.467 374.24 139.851 373.984 140.272 373.984C140.738 373.984 141.046 374.179 141.046 374.781V377.103ZM143.793 377.193C144.146 377.193 144.357 377.095 144.5 376.96L144.327 376.449C144.259 376.524 144.116 376.592 143.958 376.592C143.726 376.592 143.605 376.404 143.605 376.148V374.067H144.342V373.473H143.605V372.481H142.929V373.473H142.328V374.067H142.929V376.299C142.929 376.87 143.222 377.193 143.793 377.193ZM147.33 377.103H148.007V374.653C148.007 373.728 147.338 373.383 146.549 373.383C145.963 373.383 145.467 373.578 145.061 373.976L145.354 374.442C145.677 374.119 146.03 373.961 146.443 373.961C146.962 373.961 147.33 374.232 147.33 374.683V375.284C147.052 374.961 146.631 374.803 146.143 374.803C145.534 374.803 144.88 375.164 144.88 375.991C144.88 376.787 145.542 377.193 146.143 377.193C146.631 377.193 147.045 377.02 147.33 376.704V377.103ZM147.33 376.306C147.127 376.577 146.774 376.72 146.398 376.72C145.91 376.72 145.564 376.426 145.564 375.998C145.564 375.57 145.91 375.277 146.398 375.277C146.774 375.277 147.127 375.419 147.33 375.69V376.306ZM148.97 373.894C148.97 374.142 149.181 374.36 149.436 374.36C149.692 374.36 149.91 374.142 149.91 373.894C149.91 373.638 149.692 373.42 149.436 373.42C149.181 373.42 148.97 373.638 148.97 373.894ZM148.97 376.712C148.97 376.968 149.181 377.185 149.436 377.185C149.692 377.185 149.91 376.968 149.91 376.712C149.91 376.456 149.692 376.246 149.436 376.246C149.181 376.246 148.97 376.456 148.97 376.712ZM152.623 374.6C152.623 375.84 153.195 377.193 154.585 377.193C155.975 377.193 156.546 375.84 156.546 374.6C156.546 373.36 155.975 372.015 154.585 372.015C153.195 372.015 152.623 373.36 152.623 374.6ZM155.78 374.6C155.78 375.577 155.472 376.524 154.585 376.524C153.698 376.524 153.39 375.577 153.39 374.6C153.39 373.623 153.698 372.684 154.585 372.684C155.472 372.684 155.78 373.623 155.78 374.6ZM157.24 374.6C157.24 375.84 157.811 377.193 159.201 377.193C160.591 377.193 161.163 375.84 161.163 374.6C161.163 373.36 160.591 372.015 159.201 372.015C157.811 372.015 157.24 373.36 157.24 374.6ZM160.396 374.6C160.396 375.577 160.088 376.524 159.201 376.524C158.314 376.524 158.006 375.577 158.006 374.6C158.006 373.623 158.314 372.684 159.201 372.684C160.088 372.684 160.396 373.623 160.396 374.6ZM161.856 374.6C161.856 375.84 162.427 377.193 163.817 377.193C165.208 377.193 165.779 375.84 165.779 374.6C165.779 373.36 165.208 372.015 163.817 372.015C162.427 372.015 161.856 373.36 161.856 374.6ZM165.012 374.6C165.012 375.577 164.704 376.524 163.817 376.524C162.931 376.524 162.622 375.577 162.622 374.6C162.622 373.623 162.931 372.684 163.817 372.684C164.704 372.684 165.012 373.623 165.012 374.6ZM166.472 374.6C166.472 375.84 167.043 377.193 168.434 377.193C169.824 377.193 170.395 375.84 170.395 374.6C170.395 373.36 169.824 372.015 168.434 372.015C167.043 372.015 166.472 373.36 166.472 374.6ZM169.628 374.6C169.628 375.577 169.32 376.524 168.434 376.524C167.547 376.524 167.239 375.577 167.239 374.6C167.239 373.623 167.547 372.684 168.434 372.684C169.32 372.684 169.628 373.623 169.628 374.6ZM171.088 374.6C171.088 375.84 171.66 377.193 173.05 377.193C174.44 377.193 175.011 375.84 175.011 374.6C175.011 373.36 174.44 372.015 173.05 372.015C171.66 372.015 171.088 373.36 171.088 374.6ZM174.245 374.6C174.245 375.577 173.937 376.524 173.05 376.524C172.163 376.524 171.855 375.577 171.855 374.6C171.855 373.623 172.163 372.684 173.05 372.684C173.937 372.684 174.245 373.623 174.245 374.6ZM175.584 375.577H177.388V374.991H175.584V375.577ZM177.958 374.6C177.958 375.84 178.529 377.193 179.919 377.193C181.309 377.193 181.881 375.84 181.881 374.6C181.881 373.36 181.309 372.015 179.919 372.015C178.529 372.015 177.958 373.36 177.958 374.6ZM181.114 374.6C181.114 375.577 180.806 376.524 179.919 376.524C179.032 376.524 178.724 375.577 178.724 374.6C178.724 373.623 179.032 372.684 179.919 372.684C180.806 372.684 181.114 373.623 181.114 374.6Z" fill="#855B35"/>
<circle cx="98.2169" cy="212.472" r="10.5212" fill="#653DF5"/>
<path d="M94.4593 212.472L95.2515 213.264L97.6567 210.859L97.6567 216.23L98.7772 216.23L98.7772 210.859L101.182 213.264L101.974 212.472L98.2169 208.715L94.4593 212.472Z" fill="#FBF9BE"/>
<circle cx="98.2169" cy="314.678" r="10.5212" fill="#653DF5"/>
<path d="M101.974 314.678L101.182 313.886L98.7771 316.291V310.921H97.6566V316.291L95.2514 313.886L94.4592 314.678L98.2168 318.436L101.974 314.678Z" fill="#FBF9BE"/>
<path d="M128.432 139.07H121.332C121.042 139.07 120.98 139.091 120.815 139.258L115.186 144.516C115.021 144.683 115 144.745 115 145.038V148.126C115 149.878 115.869 150.755 117.608 150.755H124.707C124.996 150.755 125.058 150.734 125.224 150.567L130.853 145.309C131.018 145.142 131.039 145.079 131.039 144.787V141.699C131.039 139.946 130.17 139.07 128.432 139.07Z" fill="#653DF5"/>
<path d="M140.757 144.252C142.148 144.534 142.86 145.842 142.86 147.1C142.86 148.706 141.717 150.345 139.35 150.345H134.565V138.938H139.002C140.989 138.938 142.247 140.13 142.247 141.868C142.247 142.762 141.916 143.838 140.757 144.252ZM140.227 142.15C140.227 141.355 139.797 140.742 138.919 140.742H136.585V143.54H138.919C139.764 143.54 140.227 142.977 140.227 142.15ZM136.585 148.54H139.035C140.211 148.54 140.823 147.762 140.823 146.901C140.823 146.09 140.293 145.246 139.085 145.246H136.585V148.54Z" fill="#11004F"/>
<path d="M150.157 143.689V142.613H152.078V150.345H150.157V149.136C149.644 149.981 148.617 150.543 147.508 150.543C145.439 150.543 143.783 148.871 143.783 146.471C143.783 144.136 145.373 142.414 147.558 142.414C148.617 142.414 149.644 142.878 150.157 143.689ZM147.906 148.755C149.098 148.755 150.124 147.762 150.124 146.471C150.124 145.146 149.031 144.203 147.889 144.203C146.647 144.203 145.704 145.229 145.704 146.471C145.704 147.712 146.647 148.755 147.906 148.755Z" fill="#11004F"/>
<path d="M158.192 142.414C160.179 142.414 161.288 143.756 161.288 146.007V150.345H159.368V146.14C159.368 144.898 158.623 144.236 157.762 144.236C156.884 144.236 155.792 144.749 155.792 146.239V150.345H153.871V142.613H155.792V143.838C156.189 142.861 157.398 142.414 158.192 142.414Z" fill="#11004F"/>
<path d="M166.471 145.991L170.346 150.345H167.912L164.899 146.835V150.345H162.978V138.408H164.899V145.08L167.117 142.613H169.617L166.471 145.991Z" fill="#11004F"/>
<path d="M175.161 142.414C177.33 142.414 179.085 144.12 179.085 146.471C179.085 148.822 177.33 150.543 175.161 150.543C173.87 150.543 172.645 149.881 172.082 148.822V150.345H171.022V138.408H172.082V144.12C172.661 143.06 173.853 142.414 175.161 142.414ZM175.079 149.534C176.718 149.534 178.042 148.176 178.042 146.454C178.042 144.749 176.718 143.424 175.079 143.424C173.539 143.424 172.082 144.633 172.082 146.504C172.082 148.292 173.473 149.534 175.079 149.534Z" fill="#11004F"/>
<path d="M184.221 150.543C182.019 150.543 180.182 148.921 180.182 146.471C180.182 144.02 182.019 142.414 184.221 142.414C186.423 142.414 188.277 144.02 188.277 146.471C188.277 148.921 186.423 150.543 184.221 150.543ZM184.221 149.534C185.844 149.534 187.218 148.292 187.218 146.471C187.218 144.65 185.844 143.424 184.221 143.424C182.582 143.424 181.241 144.65 181.241 146.471C181.241 148.292 182.582 149.534 184.221 149.534Z" fill="#11004F"/>
<path d="M193.393 150.543C191.191 150.543 189.353 148.921 189.353 146.471C189.353 144.02 191.191 142.414 193.393 142.414C195.595 142.414 197.449 144.02 197.449 146.471C197.449 148.921 195.595 150.543 193.393 150.543ZM193.393 149.534C195.015 149.534 196.39 148.292 196.39 146.471C196.39 144.65 195.015 143.424 193.393 143.424C191.754 143.424 190.413 144.65 190.413 146.471C190.413 148.292 191.754 149.534 193.393 149.534Z" fill="#11004F"/>
<path d="M201.24 150.543C199.899 150.543 198.558 149.765 198.426 148.292H199.402C199.518 148.937 200.114 149.6 201.24 149.6C202.349 149.6 203.028 149.02 203.028 148.242C203.028 147.613 202.598 147.199 201.803 147L200.694 146.736C199.601 146.471 198.724 145.908 198.724 144.616C198.724 143.358 199.8 142.414 201.273 142.414C202.565 142.414 203.757 143.126 203.806 144.517H202.78C202.73 143.822 202.051 143.358 201.29 143.358C200.396 143.358 199.783 143.905 199.783 144.633C199.783 145.361 200.412 145.676 200.975 145.808L202.118 146.09C203.624 146.454 204.088 147.365 204.088 148.259C204.088 149.633 202.846 150.543 201.24 150.543Z" fill="#11004F"/>
<path d="M207.229 142.613H209V143.524H207.229V150.345H206.186V143.524H204.778V142.613H206.186V139.716H207.229V142.613Z" fill="#11004F"/>
</g>
<defs>
<filter id="filter0_f_115_634" x="29.2406" y="456.633" width="266.797" height="97.6463" filterUnits="userSpaceOnUse" color-interpolation-filters="sRGB">
<feFlood flood-opacity="0" result="BackgroundImageFix"/>
<feBlend mode="normal" in="SourceGraphic" in2="BackgroundImageFix" result="shape"/>
<feGaussianBlur stdDeviation="18.0684" result="effect1_foregroundBlur_115_634"/>
</filter>
<filter id="filter1_d_115_634" x="0" y="0" width="325.112" height="571.664" filterUnits="userSpaceOnUse" color-interpolation-filters="sRGB">
<feFlood flood-opacity="0" result="BackgroundImageFix"/>
<feColorMatrix in="SourceAlpha" type="matrix" values="0 0 0 0 0 0 0 0 0 0 0 0 0 0 0 0 0 0 127 0" result="hardAlpha"/>
<feOffset dy="10"/>
<feGaussianBlur stdDeviation="25"/>
<feColorMatrix type="matrix" values="0 0 0 0 0.373991 0 0 0 0 0.361215 0 0 0 0 0.420833 0 0 0 0.1 0"/>
<feBlend mode="normal" in2="BackgroundImageFix" result="effect1_dropShadow_115_634"/>
<feBlend mode="normal" in="SourceGraphic" in2="effect1_dropShadow_115_634" result="shape"/>
</filter>
<linearGradient id="paint0_linear_115_634" x1="254.831" y1="27.8232" x2="93.6912" y2="506.372" gradientUnits="userSpaceOnUse">
<stop stop-color="#F7F7FB"/>
<stop offset="1" stop-color="#E7E7E7"/>
</linearGradient>
<linearGradient id="paint1_linear_115_634" x1="258.49" y1="46.945" x2="-11.0354" y2="595.879" gradientUnits="userSpaceOnUse">
<stop stop-color="white"/>
<stop offset="1" stop-color="#FFF5D5"/>
</linearGradient>
<linearGradient id="paint2_linear_115_634" x1="-106.791" y1="-96.743" x2="417.212" y2="-38.0873" gradientUnits="userSpaceOnUse">
<stop stop-color="#1A0078"/>
<stop offset="1" stop-color="#6F47FF"/>
</linearGradient>
<linearGradient id="paint3_linear_115_634" x1="161.908" y1="373.673" x2="162.095" y2="428.721" gradientUnits="userSpaceOnUse">
<stop stop-color="#CCB579" stop-opacity="0"/>
<stop offset="1" stop-color="#CCB579"/>
</linearGradient>
</defs>
</svg>
